999
dxflib 2.2.0.0
  0
SECTION
  2
HEADER
  9
$ACADVER
  1
AC1015
  9
$HANDSEED
  5
FFFF
  9
$DIMTFAC
 40
1.0
  9
$EXTMAX
 10
66.3451568894952288
 20
45.0
 30
0.0
  9
$SURFTYPE
 70
6
  9
$DIMALTD
 70
2
  9
$PSLTSCALE
 70
1
  9
$LIMCHECK
 70
0
  9
$DIMALTF
 40
25.3999999999999986
  9
$DIMTXT
 40
0.18
  9
$UNITMODE
 70
0
  9
$PEXTMIN
 10
100000000000000000000.0
 20
100000000000000000000.0
 30
100000000000000000000.0
  9
$PDMODE
 70
0
  9
$CELTYPE
  6
BYBLOCK
  9
$DIMSHO
 70
1
  9
$DIMTAD
 70
0
  9
$PUCSORG
 10
0.0
 20
0.0
 30
0.0
  9
$DIMTIH
 70
1
  9
$SKPOLY
 70
0
  9
$REGENMODE
 70
1
  9
$UCSORG
 10
0.0
 20
0.0
 30
0.0
  9
$DIMDLE
 40
0.0
  9
$TEXTSTYLE
  7
STANDARD
  9
$WORLDVIEW
 70
1
  9
$DIMSAH
 70
0
  9
$SKETCHINC
 40
0.1
  9
$DIMDLI
 40
0.38
  9
$DWGCODEPAGE
  3
ansi_1252
  9
$SURFU
 70
6
  9
$SURFV
 70
6
  9
$TDUSRTIMER
 40
2456822.7970717591233552
  9
$DIMTIX
 70
0
  9
$ANGBASE
 50
0.0
  9
$HANDLING
 70
1
  9
$DIMASO
 70
1
  9
$MAXACTVP
 70
64
  9
$SPLFRAME
 70
0
  9
$USRTIMER
 70
1
  9
$DIMTOFL
 70
0
  9
$DIMCLRD
 70
0
  9
$DIMCLRE
 70
0
  9
$DIMASZ
 40
0.18
  9
$PLINEGEN
 70
0
  9
$INSBASE
 10
0.0
 20
0.0
 30
0.0
  9
$SPLINESEGS
 70
8
  9
$CHAMFERA
 40
10.0
  9
$PLIMCHECK
 70
0
  9
$CHAMFERB
 40
10.0
  9
$QTEXTMODE
 70
0
  9
$DRAGMODE
 70
2
  9
$ATTMODE
 70
1
  9
$USERI1
 70
0
  9
$USERI2
 70
0
  9
$AUNITS
 70
0
  9
$USERI3
 70
0
  9
$USERI4
 70
0
  9
$USERI5
 70
0
  9
$DIMALT
 70
0
  9
$DIMSTYLE
  2
STANDARD
  9
$DIMCEN
 40
0.09
  9
$DIMCLRT
 70
0
  9
$MENU
  1
.
  9
$VISRETAIN
 70
1
  9
$TDUPDATE
 40
2456822.7973263771273196
  9
$COORDS
 70
1
  9
$DIMTSZ
 40
0.0
  9
$PLIMMAX
 10
0.0
 20
0.0
  9
$DIMSOXD
 70
0
  9
$ATTREQ
 70
1
  9
$TRACEWID
 40
0.05
  9
$DIMSE1
 70
0
  9
$DIMSE2
 70
0
  9
$USERR1
 40
0.0
  9
$ATTDIA
 70
0
  9
$USERR2
 40
0.0
  9
$ANGDIR
 70
0
  9
$USERR3
 40
0.0
  9
$TILEMODE
 70
1
  9
$USERR4
 40
0.0
  9
$SHADEDIF
 70
70
  9
$DIMLIM
 70
0
  9
$USERR5
 40
0.0
  9
$MIRRTEXT
 70
1
  9
$PLINEWID
 40
0.0
  9
$FILLETRAD
 40
0.5
  9
$AUPREC
 70
0
  9
$CECOLOR
 62
256
  9
$TDCREATE
 40
2456822.7969212969765067
  9
$UCSXDIR
 10
1.0
 20
0.0
 30
0.0
  9
$DIMEXE
 40
0.18
  9
$LIMMIN
 10
0.0
 20
0.0
  9
$THICKNESS
 40
0.0
  9
$PDSIZE
 40
0.0
  9
$CLAYER
  8
LAYER_1
  9
$PUCSYDIR
 10
0.0
 20
1.0
 30
0.0
  9
$PEXTMAX
 10
-100000000000000000000.0
 20
-100000000000000000000.0
 30
-100000000000000000000.0
  9
$ELEVATION
 40
0.0
  9
$DIMEXO
 40
0.0625
  9
$SURFTAB1
 70
6
  9
$SURFTAB2
 70
6
  9
$ORTHOMODE
 70
0
  9
$DIMTVP
 40
0.0
  9
$INSUNITS
 70
4
  9
$SHADEDGE
 70
3
  9
$DIMTM
 40
0.0
  9
$LIMMAX
 10
80.0
 20
55.0
  9
$DIMRND
 40
0.0
  9
$LUNITS
 70
2
  9
$DIMTP
 40
0.0
  9
$TEXTSIZE
 40
0.2
  9
$DIMGAP
 40
0.09
  9
$OSMODE
 70
511
  9
$PELEVATION
 40
0.0
  9
$LTSCALE
 40
10.0
  9
$DIMLFAC
 40
1.0
  9
$DIMTOH
 70
1
  9
$FILLMODE
 70
1
  9
$DIMSCALE
 40
1.0
  9
$PLIMMIN
 10
0.0
 20
0.0
  9
$UCSYDIR
 10
0.0
 20
1.0
 30
0.0
  9
$DIMTOL
 70
0
  9
$EXTMIN
 10
17.2510231923601687
 20
4.9317871759890863
 30
0.0
  9
$SPLINETYPE
 70
6
  9
$DIMZIN
 70
0
  9
$TDINDWG
 40
0.0000115741
  9
$LUPREC
 70
4
  9
$PUCSXDIR
 10
1.0
 20
0.0
 30
0.0
  0
ENDSEC
  0
SECTION
  2
TABLES
  0
TABLE
  2
VPORT
  5
8
100
AcDbSymbolTable
 70
1
  0
VPORT
  5
30
100
AcDbSymbolTableRecord
100
AcDbViewportTableRecord
  2
*Active
 70
0
 10
0.0
 20
0.0
 11
1.0
 21
1.0
 12
286.3055555555554861
 22
148.5
 13
0.0
 23
0.0
 14
10.0
 24
10.0
 15
10.0
 25
10.0
 16
0.0
 26
0.0
 36
1.0
 17
0.0
 27
0.0
 37
0.0
 40
297.0
 41
1.92798353909465
 42
50.0
 43
0.0
 44
0.0
 50
0.0
 51
0.0
 71
0
 72
100
 73
1
 74
3
 75
1
 76
1
 77
0
 78
0
281
0
 65
1
110
0.0
120
0.0
130
0.0
111
1.0
121
0.0
131
0.0
112
0.0
122
1.0
132
0.0
 79
0
146
0.0
  0
ENDTAB
  0
TABLE
  2
LTYPE
  5
5
100
AcDbSymbolTable
 70
21
  0
LTYPE
  5
14
100
AcDbSymbolTableRecord
100
AcDbLinetypeTableRecord
  2
ByBlock
 70
0
  3

 72
65
 73
0
 40
0.0
  0
LTYPE
  5
15
100
AcDbSymbolTableRecord
100
AcDbLinetypeTableRecord
  2
ByLayer
 70
0
  3

 72
65
 73
0
 40
0.0
  0
LTYPE
  5
16
100
AcDbSymbolTableRecord
100
AcDbLinetypeTableRecord
  2
CONTINUOUS
 70
0
  3
Solid line
 72
65
 73
0
 40
0.0
  0
LTYPE
  5
31
100
AcDbSymbolTableRecord
100
AcDbLinetypeTableRecord
  2
DOT
 70
0
  3
Dot . . . . . . . . . . . . . . . . . . . . . .
 72
65
 73
2
 40
6.3499999999999996
 49
0.0
 74
0
 49
-6.3499999999999996
 74
0
  0
LTYPE
  5
32
100
AcDbSymbolTableRecord
100
AcDbLinetypeTableRecord
  2
DOT2
 70
0
  3
Dot (.5x) .....................................
 72
65
 73
2
 40
3.1749999999999998
 49
0.0
 74
0
 49
-3.1749999999999998
 74
0
  0
LTYPE
  5
33
100
AcDbSymbolTableRecord
100
AcDbLinetypeTableRecord
  2
DOTX2
 70
0
  3
Dot (2x) .  .  .  .  .  .  .  .  .  .  .  .  .
 72
65
 73
2
 40
12.6999999999999993
 49
0.0
 74
0
 49
-12.6999999999999993
 74
0
  0
LTYPE
  5
34
100
AcDbSymbolTableRecord
100
AcDbLinetypeTableRecord
  2
DASHED
 70
0
  3
Dashed __ __ __ __ __ __ __ __ __ __ __ __ __ _
 72
65
 73
2
 40
19.0500000000000007
 49
12.6999999999999993
 74
0
 49
-6.3499999999999996
 74
0
  0
LTYPE
  5
35
100
AcDbSymbolTableRecord
100
AcDbLinetypeTableRecord
  2
DASHED2
 70
0
  3
Dashed (.5x) _ _ _ _ _ _ _ _ _ _ _ _ _ _ _ _ _
 72
65
 73
2
 40
9.5250000000000004
 49
6.3499999999999996
 74
0
 49
-3.1749999999999998
 74
0
  0
LTYPE
  5
36
100
AcDbSymbolTableRecord
100
AcDbLinetypeTableRecord
  2
DASHEDX2
 70
0
  3
Dashed (2x) ____  ____  ____  ____  ____  ___
 72
65
 73
2
 40
38.1000000000000014
 49
25.3999999999999986
 74
0
 49
-12.6999999999999993
 74
0
  0
LTYPE
  5
37
100
AcDbSymbolTableRecord
100
AcDbLinetypeTableRecord
  2
DASHDOT
 70
0
  3
Dash dot __ . __ . __ . __ . __ . __ . __ . __
 72
65
 73
4
 40
25.3999999999999986
 49
12.6999999999999993
 74
0
 49
-6.3499999999999996
 74
0
 49
0.0
 74
0
 49
-6.3499999999999996
 74
0
  0
LTYPE
  5
38
100
AcDbSymbolTableRecord
100
AcDbLinetypeTableRecord
  2
DASHDOT2
 70
0
  3
Dash dot (.5x) _._._._._._._._._._._._._._._.
 72
65
 73
4
 40
12.6999999999999993
 49
6.3499999999999996
 74
0
 49
-3.1749999999999998
 74
0
 49
0.0
 74
0
 49
-3.1749999999999998
 74
0
  0
LTYPE
  5
39
100
AcDbSymbolTableRecord
100
AcDbLinetypeTableRecord
  2
DASHDOTX2
 70
0
  3
Dash dot (2x) ____  .  ____  .  ____  .  ___
 72
65
 73
4
 40
50.7999999999999972
 49
25.3999999999999986
 74
0
 49
-12.6999999999999993
 74
0
 49
0.0
 74
0
 49
-12.6999999999999993
 74
0
  0
LTYPE
  5
3A
100
AcDbSymbolTableRecord
100
AcDbLinetypeTableRecord
  2
DIVIDE
 70
0
  3
Divide ____ . . ____ . . ____ . . ____ . . ____
 72
65
 73
6
 40
31.75
 49
12.6999999999999993
 74
0
 49
-6.3499999999999996
 74
0
 49
0.0
 74
0
 49
-6.3499999999999996
 74
0
 49
0.0
 74
0
 49
-6.3499999999999996
 74
0
  0
LTYPE
  5
3B
100
AcDbSymbolTableRecord
100
AcDbLinetypeTableRecord
  2
DIVIDE2
 70
0
  3
Divide (.5x) __..__..__..__..__..__..__..__.._
 72
65
 73
6
 40
15.875
 49
6.3499999999999996
 74
0
 49
-3.1749999999999998
 74
0
 49
0.0
 74
0
 49
-3.1749999999999998
 74
0
 49
0.0
 74
0
 49
-3.1749999999999998
 74
0
  0
LTYPE
  5
3C
100
AcDbSymbolTableRecord
100
AcDbLinetypeTableRecord
  2
DIVIDEX2
 70
0
  3
Divide (2x) ________  .  .  ________  .  .  _
 72
65
 73
6
 40
63.5
 49
25.3999999999999986
 74
0
 49
-12.6999999999999993
 74
0
 49
0.0
 74
0
 49
-12.6999999999999993
 74
0
 49
0.0
 74
0
 49
-12.6999999999999993
 74
0
  0
LTYPE
  5
3D
100
AcDbSymbolTableRecord
100
AcDbLinetypeTableRecord
  2
CENTER
 70
0
  3
Center ____ _ ____ _ ____ _ ____ _ ____ _ ____
 72
65
 73
4
 40
50.7999999999999972
 49
31.75
 74
0
 49
-6.3499999999999996
 74
0
 49
6.3499999999999996
 74
0
 49
-6.3499999999999996
 74
0
  0
LTYPE
  5
3E
100
AcDbSymbolTableRecord
100
AcDbLinetypeTableRecord
  2
CENTER2
 70
0
  3
Center (.5x) ___ _ ___ _ ___ _ ___ _ ___ _ ___
 72
65
 73
4
 40
28.5749999999999993
 49
19.0500000000000007
 74
0
 49
-3.1749999999999998
 74
0
 49
3.1749999999999998
 74
0
 49
-3.1749999999999998
 74
0
  0
LTYPE
  5
3F
100
AcDbSymbolTableRecord
100
AcDbLinetypeTableRecord
  2
CENTERX2
 70
0
  3
Center (2x) ________  __  ________  __  _____
 72
65
 73
4
 40
101.5999999999999943
 49
63.5
 74
0
 49
-12.6999999999999993
 74
0
 49
12.6999999999999993
 74
0
 49
-12.6999999999999993
 74
0
  0
LTYPE
  5
40
100
AcDbSymbolTableRecord
100
AcDbLinetypeTableRecord
  2
BORDER
 70
0
  3
Border __ __ . __ __ . __ __ . __ __ . __ __ .
 72
65
 73
6
 40
44.4500000000000028
 49
12.6999999999999993
 74
0
 49
-6.3499999999999996
 74
0
 49
12.6999999999999993
 74
0
 49
-6.3499999999999996
 74
0
 49
0.0
 74
0
 49
-6.3499999999999996
 74
0
  0
LTYPE
  5
41
100
AcDbSymbolTableRecord
100
AcDbLinetypeTableRecord
  2
BORDER2
 70
0
  3
Border (.5x) __.__.__.__.__.__.__.__.__.__.__.
 72
65
 73
6
 40
22.2250000000000014
 49
6.3499999999999996
 74
0
 49
-3.1749999999999998
 74
0
 49
6.3499999999999996
 74
0
 49
-3.1749999999999998
 74
0
 49
0.0
 74
0
 49
-3.1749999999999998
 74
0
  0
LTYPE
  5
42
100
AcDbSymbolTableRecord
100
AcDbLinetypeTableRecord
  2
BORDERX2
 70
0
  3
Border (2x) ____  ____  .  ____  ____  .  ___
 72
65
 73
6
 40
88.9000000000000057
 49
25.3999999999999986
 74
0
 49
-12.6999999999999993
 74
0
 49
25.3999999999999986
 74
0
 49
-12.6999999999999993
 74
0
 49
0.0
 74
0
 49
-12.6999999999999993
 74
0
  0
ENDTAB
  0
TABLE
  2
LAYER
  5
2
100
AcDbSymbolTable
 70
3
  0
LAYER
  5
10
100
AcDbSymbolTableRecord
100
AcDbLayerTableRecord
  2
0
 70
0
 62
7
  6
CONTINUOUS
390
F
  0
LAYER
  5
43
100
AcDbSymbolTableRecord
100
AcDbLayerTableRecord
  2
PortHoles
 70
0
 62
1
  6
CONTINUOUS
370
0
390
F
  0
LAYER
  5
44
100
AcDbSymbolTableRecord
100
AcDbLayerTableRecord
  2
PortLabels
 70
0
 62
7
  6
CONTINUOUS
370
0
390
F
  0
ENDTAB
  0
TABLE
  2
STYLE
  5
3
100
AcDbSymbolTable
 70
1
  0
STYLE
  5
11
100
AcDbSymbolTableRecord
100
AcDbTextStyleTableRecord
  2
Standard
 70
0
 40
0.0
 41
0.75
 50
0.0
 71
0
 42
2.5
  3
txt
  4

  0
ENDTAB
  0
TABLE
  2
VIEW
  5
6
100
AcDbSymbolTable
 70
0
  0
ENDTAB
  0
TABLE
  2
UCS
  5
7
100
AcDbSymbolTable
 70
0
  0
ENDTAB
  0
TABLE
  2
APPID
  5
9
100
AcDbSymbolTable
 70
1
  0
APPID
  5
12
100
AcDbSymbolTableRecord
100
AcDbRegAppTableRecord
  2
ACAD
 70
0
  0
ENDTAB
  0
TABLE
  2
DIMSTYLE
  5
A
100
AcDbSymbolTable
 70
1
100
AcDbDimStyleTable
 71
0
  0
DIMSTYLE
105
27
100
AcDbSymbolTableRecord
100
AcDbDimStyleTableRecord
  2
Standard
 41
0.18
 42
0.0625
 43
3.75
 44
0.18
 70
0
 73
0
 74
0
 77
1
 78
8
140
0.18
141
2.5
143
0.03937007874016
147
0.09
171
3
172
1
271
2
272
2
274
3
278
44
283
0
284
8
340
11
  0
ENDTAB
  0
TABLE
  2
BLOCK_RECORD
  5
1
100
AcDbSymbolTable
 70
1
  0
BLOCK_RECORD
  5
1F
100
AcDbSymbolTableRecord
100
AcDbBlockTableRecord
  2
*Model_Space
340
22
  0
BLOCK_RECORD
  5
1B
100
AcDbSymbolTableRecord
100
AcDbBlockTableRecord
  2
*Paper_Space
340
1E
  0
BLOCK_RECORD
  5
23
100
AcDbSymbolTableRecord
100
AcDbBlockTableRecord
  2
*Paper_Space0
340
26
  0
ENDTAB
  0
ENDSEC
  0
SECTION
  2
BLOCKS
  0
BLOCK
  5
20
100
AcDbEntity
  8
0
100
AcDbBlockBegin
  2
*Model_Space
 70
0
 10
0.0
 20
0.0
 30
0.0
  3
*Model_Space
  1

  0
ENDBLK
  5
21
100
AcDbEntity
  8
0
100
AcDbBlockEnd
  0
BLOCK
  5
1C
100
AcDbEntity
 67
1
  8
0
100
AcDbBlockBegin
  2
*Paper_Space
 70
0
 10
0.0
 20
0.0
 30
0.0
  3
*Paper_Space
  1

  0
ENDBLK
  5
1D
100
AcDbEntity
 67
1
  8
0
100
AcDbBlockEnd
  0
BLOCK
  5
24
100
AcDbEntity
  8
0
100
AcDbBlockBegin
  2
*Paper_Space0
 70
0
 10
0.0
 20
0.0
 30
0.0
  3
*Paper_Space0
  1

  0
ENDBLK
  5
25
100
AcDbEntity
  8
0
100
AcDbBlockEnd
  0
ENDSEC
  0
SECTION
  2
ENTITIES
  0
LWPOLYLINE
  5
45
  8
PortLabels
 62
256
370
-1
  6
CONTINUOUS
100
AcDbEntity
100
AcDbPolyline
 90
11
 70
1
 10
7.4256480218280991
 20
41.0
 10
7.4256480218280991
 20
45.0
 10
7.9686221009549811
 20
45.0
 10
10.0695770804911291
 20
41.8594815825375193
 10
10.0695770804911291
 20
45.0
 10
10.5770804911323317
 20
45.0
 10
10.5770804911323317
 20
41.0
 10
10.0341064120054604
 20
41.0
 10
7.9331514324693089
 20
44.1432469304229187
 10
7.9331514324693089
 20
41.0
 10
7.4256480218280991
 20
41.0
  0
LWPOLYLINE
  5
46
  8
PortLabels
 62
256
370
-1
  6
CONTINUOUS
100
AcDbEntity
100
AcDbPolyline
 90
76
 70
1
 10
13.3874488403819889
 20
41.9331514324693018
 10
13.8949522510231915
 20
41.8703956343792569
 10
13.8221350613915384
 20
41.6604706684856723
 10
13.7237380627557997
 20
41.4754433833560725
 10
13.5997612551159612
 20
41.3153137789904434
 10
13.4502046384720302
 20
41.1800818553888135
 10
13.2766030013642613
 20
41.0726466575716174
 10
13.080491132332881
 20
40.9959072305593466
 10
12.8618690313778998
 20
40.9498635743519799
 10
12.6207366984993214
 20
40.9345156889495172
 10
12.4659149045020499
 20
40.9406335266030084
 10
12.3193212824010914
 20
40.9589870395634392
 10
12.1809558321964495
 20
40.9895762278308382
 10
12.0508185538881314
 20
41.0324010914051911
 10
11.9289094474761299
 20
41.0874616302864979
 10
11.8152285129604415
 20
41.1547578444747728
 10
11.7097757503410698
 20
41.2342897339699874
 10
11.6125511596180111
 20
41.3260572987721702
 10
11.5252600613915384
 20
41.4288668144611165
 10
11.4496077762619386
 20
41.5415245566166433
 10
11.3855943042291905
 20
41.6640305252387435
 10
11.3332196452933083
 20
41.796384720327417
 10
11.292483799454299
 20
41.9385871418826781
 10
11.2633867667121415
 20
42.0906377899045125
 10
11.2459285470668497
 20
42.2525366643929132
 10
11.2401091405184204
 20
42.4242837653478873
 10
11.2459924965893592
 20
42.6019781718963202
 10
11.2636425648021792
 20
42.769440654843109
 10
11.293059345156891
 20
42.9266712141882678
 10
11.3342428376534805
 20
43.0736698499317896
 10
11.3871930422919512
 20
43.2104365620736672
 10
11.4519099590722995
 20
43.3369713506139078
 10
11.5283935879945396
 20
43.4532742155525327
 10
11.6166439290586609
 20
43.559345156889492
 10
11.7142735334242793
 20
43.6539904502046383
 10
11.8188949522510214
 20
43.736016371077767
 10
11.9305081855388799
 20
43.8054229195088709
 10
12.0491132332878514
 20
43.8622100954979572
 10
12.1747100954979501
 20
43.9063778990450189
 10
12.3072987721691689
 20
43.9379263301500629
 10
12.4468792633015006
 20
43.9568553888131035
 10
12.5934515688949489
 20
43.9631650750341123
 10
12.7354195088676612
 20
43.9569832878581224
 10
12.8707366984993214
 20
43.9384379263301525
 10
12.9994031377899013
 20
43.9075289904502029
 10
13.1214188267394292
 20
43.8642564802182804
 10
13.2367837653478908
 20
43.808620395634378
 10
13.3454979536152791
 20
43.7406207366985029
 10
13.4475613915416083
 20
43.6602575034106408
 10
13.5429740791268785
 20
43.5675306957708131
 10
13.6293059345156884
 20
43.4635914051841823
 10
13.7041268758526584
 20
43.3495907230559396
 10
13.7674369031377886
 20
43.2255286493860922
 10
13.8192360163710788
 20
43.0914051841746328
 10
13.8595242155525291
 20
42.9472203274215616
 10
13.8883015006821289
 20
42.7929740791268785
 10
13.9055678717598887
 20
42.6286664392905905
 10
13.9113233287858087
 20
42.4542974079126907
 10
13.9085948158253707
 20
42.3233287858117322
 10
11.7476125511596194
 20
42.3233287858117322
 10
11.7747271487039598
 20
42.0985675306957674
 10
11.8287858117326117
 20
41.90177353342429
 10
11.909788540245561
 20
41.7329467939972716
 10
12.0177353342428397
 20
41.5920873124147334
 10
12.1466575716234608
 20
41.4810709413369665
 10
12.2905866302864908
 20
41.4017735334242829
 10
12.4495225102319296
 20
41.3541950886766614
 10
12.6234652114597594
 20
41.3383356070941304
 10
12.7535811732605708
 20
41.3472032742155378
 10
12.8738062755798097
 20
41.3738062755798097
 10
12.9841405184174583
 20
41.4181446111868965
 10
13.0845839017735308
 20
41.4802182810368265
 10
13.1751364256480201
 20
41.5617326057298797
 10
13.2557980900409298
 20
41.6643929058663005
 10
13.3265688949522492
 20
41.7881991814461031
 10
13.3874488403819889
 20
41.9331514324693018
  0
LWPOLYLINE
  5
47
  8
PortLabels
 62
256
370
-1
  6
CONTINUOUS
100
AcDbEntity
100
AcDbPolyline
 90
18
 70
1
 10
11.7748976807639814
 20
42.7271487039563524
 10
13.3929058663028613
 20
42.7271487039563524
 10
13.3690313778990486
 20
42.8985334242837695
 10
13.33015006821282
 20
43.0470668485675318
 10
13.2762619372442003
 20
43.1727489768076396
 10
13.207366984993179
 20
43.2755798090040926
 10
13.0813437926330209
 20
43.3997271487039527
 10
12.93792633015007
 20
43.4884038199181404
 10
12.7771145975443403
 20
43.541609822646663
 10
12.5989085948158213
 20
43.559345156889492
 10
12.4364768076398313
 20
43.5451909959072267
 10
12.287517053205999
 20
43.5027285129604309
 10
12.1520293315143313
 20
43.4319577080491115
 10
12.0300136425647999
 20
43.3328785811732615
 10
11.9276091405184204
 20
43.2100954979536169
 10
11.8509549795361586
 20
43.0682128240109066
 10
11.8000511596180111
 20
42.9072305593451588
 10
11.7748976807639814
 20
42.7271487039563524
  0
LWPOLYLINE
  5
48
  8
PortLabels
 62
256
370
-1
  6
CONTINUOUS
100
AcDbEntity
100
AcDbPolyline
 90
33
 70
1
 10
15.5839017735334195
 20
41.4392905866302925
 10
15.6548431105047712
 20
41.005457025920883
 10
15.4583901773533405
 20
40.9727148703956274
 10
15.2837653478853994
 20
40.9618008185538898
 10
15.1575716234652091
 20
40.9670873124147334
 10
15.0463847203274206
 20
40.9829467939972716
 10
14.9502046384720302
 20
41.0093792633014971
 10
14.8690313778990415
 20
41.046384720327417
 10
14.8008185538881314
 20
41.0920020463847209
 10
14.7435197817189589
 20
41.1442701227830767
 10
14.6971350613915384
 20
41.203188949522513
 10
14.6616643929058696
 20
41.2687585266030084
 10
14.6354024556616693
 20
41.3566678035470687
 10
14.6166439290586609
 20
41.4826057298772213
 10
14.6016371077762592
 20
41.8485675306957674
 10
14.6016371077762592
 20
43.515688949522513
 10
14.2414733969986393
 20
43.515688949522513
 10
14.2414733969986393
 20
43.8976807639836295
 10
14.6016371077762592
 20
43.8976807639836295
 10
14.6016371077762592
 20
44.6152796725784526
 10
15.0900409276944103
 20
44.9099590723055968
 10
15.0900409276944103
 20
43.8976807639836295
 10
15.5839017735334195
 20
43.8976807639836295
 10
15.5839017735334195
 20
43.515688949522513
 10
15.0900409276944103
 20
43.515688949522513
 10
15.0900409276944103
 20
41.8212824010914019
 10
15.0965211459754407
 20
41.6487039563437875
 10
15.1159618008185497
 20
41.5511596180081924
 10
15.1500682128240101
 20
41.497271487039562
 10
15.2005457025920911
 20
41.4556616643929132
 10
15.2718281036834895
 20
41.4290586630286626
 10
15.3683492496589302
 20
41.4201909959072267
 10
15.5839017735334195
 20
41.4392905866302925
  0
LWPOLYLINE
  5
49
  8
PortLabels
 62
256
370
-1
  6
CONTINUOUS
100
AcDbEntity
100
AcDbPolyline
 90
19
 70
1
 10
16.5989085948158213
 20
41.0
 10
15.7121418826739401
 20
43.8976807639836295
 10
16.2196452933151392
 20
43.8976807639836295
 10
16.6807639836289212
 20
42.2251023192360222
 10
16.8526603001364208
 20
41.6030013642564782
 10
17.0027285129604415
 20
42.2005457025920876
 10
17.46384720327422
 20
43.8976807639836295
 10
17.9686221009549811
 20
43.8976807639836295
 10
18.4024556616643906
 20
42.2169167803547083
 10
18.5470668485675283
 20
41.6630286493860922
 10
18.7135061391541591
 20
42.2223738062755771
 10
19.2100954979536098
 20
43.8976807639836295
 10
19.687585266030009
 20
43.8976807639836295
 10
18.7817189631650798
 20
41.0
 10
18.2714870395634392
 20
41.0
 10
17.8103683492496607
 20
42.7353342428376521
 10
17.6984993178717609
 20
43.2291950886766685
 10
17.1118690313778998
 20
41.0
 10
16.5989085948158213
 20
41.0
  0
LWPOLYLINE
  5
4A
  8
PortLabels
 62
256
370
-1
  6
CONTINUOUS
100
AcDbEntity
100
AcDbPolyline
 90
61
 70
1
 10
19.9167803547066811
 20
42.4488403819918076
 10
19.9237721691678011
 20
42.6435453615279698
 10
19.9447476125511614
 20
42.8252046384720302
 10
19.9797066848567511
 20
42.9938182128240101
 10
20.0286493860845809
 20
43.1493860845839023
 10
20.0915757162346509
 20
43.291908253751707
 10
20.1684856753069504
 20
43.421384720327417
 10
20.2593792633015006
 20
43.5378154843110465
 10
20.3642564802182804
 20
43.6412005457025884
 10
20.4602660300136385
 20
43.7166609822646635
 10
20.5613915416098187
 20
43.7820600272851266
 10
20.667633015006821
 20
43.8373976807639778
 10
20.7789904502046383
 20
43.8826739427012313
 10
20.8954638472032705
 20
43.917888813096873
 10
21.0170532060027284
 20
43.9430422919508885
 10
21.1437585266030013
 20
43.9581343792632993
 10
21.2755798090040891
 20
43.9631650750341123
 10
21.4215552523874493
 20
43.9570472373806211
 10
21.560709413369711
 20
43.9386937244201903
 10
21.6930422919508885
 20
43.9081045361527913
 10
21.8185538881309711
 20
43.8652796725784384
 10
21.9372442019099587
 20
43.8102191336971316
 10
22.0491132332878479
 20
43.7429229195088567
 10
22.1541609822646635
 20
43.6633910300136421
 10
22.2523874488403806
 20
43.5716234652114593
 10
22.3412772851296069
 20
43.4690697476125507
 10
22.4183151432469288
 20
43.3571793997271513
 10
22.4835010231923604
 20
43.2359524215552469
 10
22.5368349249658877
 20
43.105388813096873
 10
22.5783168485675176
 20
42.9654885743519799
 10
22.6079467939972716
 20
42.8162517053206031
 10
22.6257247612551069
 20
42.6576782060027284
 10
22.6316507503410733
 20
42.489768076398363
 10
22.6211630286493914
 20
42.2250170532060025
 10
22.5896998635743529
 20
41.9901091405184204
 10
22.5372612551159577
 20
41.7850443383356094
 10
22.4638472032742129
 20
41.6098226466575767
 10
22.3703956343792569
 20
41.4584754433833567
 10
22.2578444747612565
 20
41.3250341064120121
 10
22.1261937244201903
 20
41.2094986357435076
 10
21.9754433833560689
 20
41.1118690313778998
 10
21.8114768076398384
 20
41.034276944065482
 10
21.6401773533424304
 20
40.9788540245566182
 10
21.4615450204638485
 20
40.9456002728512871
 10
21.2755798090040891
 20
40.9345156889495172
 10
21.1271103342428397
 20
40.9406122100954875
 10
20.9859311050477508
 20
40.9589017735334266
 10
20.8520421214188296
 20
40.9893843792632993
 10
20.7254433833560689
 20
41.0320600272851266
 10
20.6061348908594795
 20
41.0869287175989086
 10
20.4941166439290612
 20
41.1539904502046383
 10
20.3893886425647999
 20
41.2332452251023227
 10
20.2919508867667098
 20
41.3246930422919476
 10
20.2040202933151498
 20
41.4276091405184204
 10
20.1278137789904505
 20
41.5412687585266127
 10
20.0633313437926297
 20
41.6656718963165105
 10
20.0105729877216909
 20
41.8008185538881278
 10
19.9695387107776305
 20
41.946708731241479
 10
19.9402285129604415
 20
42.1033424283765427
 10
19.9226423942701203
 20
42.2707196452933118
 10
19.9167803547066811
 20
42.4488403819918076
  0
LWPOLYLINE
  5
4B
  8
PortLabels
 62
256
370
-1
  6
CONTINUOUS
100
AcDbEntity
100
AcDbPolyline
 90
41
 70
1
 10
20.4215552523874493
 20
42.4488403819918076
 10
20.4367326057298797
 20
42.1880115961800826
 10
20.4822646657571603
 20
41.9621418826739401
 10
20.5164137107776305
 20
41.8623166780354694
 10
20.5581514324693089
 20
41.7712312414733873
 10
20.6074778308321989
 20
41.6888855729877221
 10
20.6643929058663005
 20
41.6152796725784384
 10
20.7936562073669897
 20
41.494116643929047
 10
20.9386084583901813
 20
41.407571623465202
 10
21.0992496589358787
 20
41.3556446111868965
 10
21.2755798090040891
 20
41.3383356070941304
 10
21.4507162346521199
 20
41.3557298772169233
 10
21.6105047748976808
 20
41.4079126875852666
 10
21.7549454297407898
 20
41.4948840381991673
 10
21.8840381991814503
 20
41.6166439290586609
 10
21.9409532742155484
 20
41.6907827421555197
 10
21.9902796725784491
 20
41.7740450204638378
 10
22.0320173942701274
 20
41.8664307639836295
 10
22.0661664392905834
 20
41.9679399727148734
 10
22.1116984993178676
 20
42.1983287858117322
 10
22.126875852660298
 20
42.4652114597544426
 10
22.1116132332878479
 20
42.7176841746248428
 10
22.0658253751705331
 20
42.9375852660300126
 10
22.0314844815825381
 20
43.0353214529331467
 10
21.9895122783083217
 20
43.1249147339699874
 10
21.9399087653478801
 20
43.2063651091405205
 10
21.8826739427012207
 20
43.2796725784447531
 10
21.7531548431105008
 20
43.4008356070941375
 10
21.6087994542974009
 20
43.4873806275579824
 10
21.4496077762619386
 20
43.5393076398363021
 10
21.2755798090040891
 20
43.5566166439290612
 10
21.0992496589358787
 20
43.5393929058663076
 10
20.9386084583901813
 20
43.4877216916780398
 10
20.7936562073669897
 20
43.4016030013642578
 10
20.6643929058663005
 20
43.2810368349249686
 10
20.6074778308321989
 20
43.2077506821282427
 10
20.5581514324693089
 20
43.1256821282401077
 10
20.5164137107776305
 20
43.0348311732605779
 10
20.4822646657571603
 20
42.935197817189632
 10
20.4367326057298797
 20
42.7095839017735273
 10
20.4215552523874493
 20
42.4488403819918076
  0
LWPOLYLINE
  5
4C
  8
PortLabels
 62
256
370
-1
  6
CONTINUOUS
100
AcDbEntity
100
AcDbPolyline
 90
35
 70
1
 10
23.2019099590723101
 20
41.0
 10
23.2019099590723101
 20
43.8976807639836295
 10
23.6439290586630335
 20
43.8976807639836295
 10
23.6439290586630335
 20
43.458390177353337
 10
23.7268929058663076
 20
43.5994201909959074
 10
23.8066166439290612
 20
43.7141882673942703
 10
23.8831002728513013
 20
43.8026944065484329
 10
23.9563437926330209
 20
43.8649386084583881
 10
24.0297578444747728
 20
43.9079126875852666
 10
24.1067530695770813
 20
43.9386084583901777
 10
24.1873294679399677
 20
43.9570259208731215
 10
24.2714870395634392
 20
43.9631650750341123
 10
24.3961459754433818
 20
43.9532742155525327
 10
24.5218281036834895
 20
43.9236016371077795
 10
24.6485334242837695
 20
43.87414733969986
 10
24.7762619372442074
 20
43.8049113233287883
 10
24.6070941336971387
 20
43.3492496589358822
 10
24.5170532060027284
 20
43.3958049113233315
 10
24.4270122783083323
 20
43.4290586630286484
 10
24.336971350613922
 20
43.4490109140518399
 10
24.2469304229195117
 20
43.4556616643929132
 10
24.168485675306961
 20
43.4496077762619421
 10
24.0941336971350566
 20
43.4314461118690431
 10
24.0238744884038198
 20
43.4011766712141878
 10
23.9577080491132435
 20
43.3587994542974116
 10
23.8981923601637121
 20
43.3056787175989086
 10
23.8478854024556597
 20
43.2431787175989086
 10
23.8067871759890934
 20
43.1712994542974116
 10
23.7748976807639778
 20
43.0900409276944032
 10
23.7390859481582623
 20
42.9560027285129635
 10
23.7135061391541626
 20
42.8158253751705331
 10
23.698158253751707
 20
42.669508867667119
 10
23.6930422919508885
 20
42.5170532060027284
 10
23.6930422919508885
 20
41.0
 10
23.2019099590723101
 20
41.0
  0
LWPOLYLINE
  5
4D
  8
PortLabels
 62
256
370
-1
  6
CONTINUOUS
100
AcDbEntity
100
AcDbPolyline
 90
13
 70
1
 10
25.0709413369713516
 20
41.0
 10
25.0709413369713516
 20
45.0
 10
25.56207366984993
 20
45.0
 10
25.56207366984993
 20
42.7189631650750314
 10
26.7244201909959074
 20
43.8976807639836295
 10
27.360163710777627
 20
43.8976807639836295
 10
26.2523874488403806
 20
42.8226466575716174
 10
27.4720327421555268
 20
41.0
 10
26.8663028649386106
 20
41.0
 10
25.9085948158253672
 20
42.4815825375170633
 10
25.56207366984993
 20
42.1487039563437875
 10
25.56207366984993
 20
41.0
 10
25.0709413369713516
 20
41.0
  0
LWPOLYLINE
  5
4E
  8
PortLabels
 62
256
370
-1
  6
CONTINUOUS
100
AcDbEntity
100
AcDbPolyline
 90
36
 70
1
 10
39.2946793997271584
 20
29.0
 10
39.2946793997271584
 20
33.0
 10
40.8035470668485729
 20
33.0
 10
41.1548431105047925
 20
32.9904502046384707
 10
41.4120054570259271
 20
32.9618008185538898
 10
41.5533765347885478
 20
32.9317019099590667
 10
41.6828103683492586
 20
32.8905184174624878
 10
41.8003069577080595
 20
32.8382503410641178
 10
41.9058663028649505
 20
32.7748976807639778
 10
42.0005968622101094
 20
32.6990961800818525
 10
42.0856070941337066
 20
32.6094815825375122
 10
42.1608969986357494
 20
32.5060538881309569
 10
42.2264665757162376
 20
32.3888130968622079
 10
42.2795873124147406
 20
32.2615961800818525
 10
42.3175306957708131
 20
32.1282401091405205
 10
42.3402967257844622
 20
31.9887448840382014
 10
42.3478854024556668
 20
31.8431105047748986
 10
42.3428120736698617
 20
31.7180039222373793
 10
42.3275920873124178
 20
31.5978001364256507
 10
42.3022254433833567
 20
31.4824991473396985
 10
42.2667121418826781
 20
31.3721009549795404
 10
42.2210521828103822
 20
31.2666055593451588
 10
42.1652455661664476
 20
31.1660129604365608
 10
42.0992922919509027
 20
31.0703231582537498
 10
42.0231923601637192
 20
30.9795361527967295
 10
41.9338335607094166
 20
30.8967215211459703
 10
41.8281036834925004
 20
30.8249488403819889
 10
41.7060027285129706
 20
30.7642181105047712
 10
41.5675306957708131
 20
30.7145293315143206
 10
41.4126875852660419
 20
30.6758825034106408
 10
41.2414733969986429
 20
30.6482776261937211
 10
41.0538881309686303
 20
30.6317146998635685
 10
40.849931787175997
 20
30.6261937244201903
 10
39.824010914051847
 20
30.6261937244201903
 10
39.824010914051847
 20
29.0
 10
39.2946793997271584
 20
29.0
  0
LWPOLYLINE
  5
4F
  8
PortLabels
 62
256
370
-1
  6
CONTINUOUS
100
AcDbEntity
100
AcDbPolyline
 90
23
 70
1
 10
39.824010914051847
 20
31.0982264665757207
 10
40.8581173260572967
 20
31.0982264665757207
 10
41.0960095497953617
 20
31.1101637107776305
 10
41.2967257844474815
 20
31.1459754433833602
 10
41.4602660300136634
 20
31.2056616643929097
 10
41.5280951568895134
 20
31.2444577080491115
 10
41.5866302864938717
 20
31.2892223738062789
 10
41.6809345156889606
 20
31.394440654843109
 10
41.7482946793997272
 20
31.5190995907230587
 10
41.788710777626207
 20
31.6631991814461102
 10
41.8021828103683575
 20
31.8267394270122814
 10
41.7942530695771026
 20
31.9477319236016406
 10
41.7704638472032883
 20
32.0596862210095495
 10
41.730815143246943
 20
32.1626023192360222
 10
41.6753069577080595
 20
32.2564802182810411
 10
41.606838335607101
 20
32.3382503410641178
 10
41.5283083219645377
 20
32.4048431105047712
 10
41.4397169167803625
 20
32.4562585266030013
 10
41.3410641200545825
 20
32.4924965893588009
 10
41.1507503410641178
 20
32.5190995907230587
 10
40.8472032742155591
 20
32.5279672578444732
 10
39.824010914051847
 20
32.5279672578444732
 10
39.824010914051847
 20
31.0982264665757207
  0
LWPOLYLINE
  5
50
  8
PortLabels
 62
256
370
-1
  6
CONTINUOUS
100
AcDbEntity
100
AcDbPolyline
 90
61
 70
1
 10
42.7762619372442074
 20
30.4488403819918112
 10
42.7832537517053311
 20
30.6435453615279698
 10
42.8042291950886877
 20
30.8252046384720302
 10
42.8391882673942774
 20
30.9938182128240101
 10
42.8881309686221073
 20
31.1493860845838988
 10
42.9510572987721773
 20
31.2919082537516999
 10
43.0279672578444874
 20
31.4213847203274206
 10
43.1188608458390235
 20
31.5378154843110501
 10
43.2237380627558068
 20
31.6412005457025884
 10
43.3197476125511685
 20
31.7166609822646599
 10
43.4208731241473487
 20
31.7820600272851301
 10
43.5271145975443403
 20
31.8373976807639814
 10
43.6384720327421576
 20
31.8826739427012313
 10
43.7549454297408005
 20
31.9178888130968588
 10
43.8765347885402477
 20
31.9430422919508814
 10
44.0032401091405205
 20
31.9581343792632993
 10
44.135061391541619
 20
31.9631650750341088
 10
44.2810368349249828
 20
31.9570472373806282
 10
44.420190995907241
 20
31.9386937244201903
 10
44.5525238744884078
 20
31.9081045361527984
 10
44.6780354706684903
 20
31.8652796725784491
 10
44.7967257844474815
 20
31.8102191336971387
 10
44.9085948158253814
 20
31.7429229195088709
 10
45.0136425648021898
 20
31.6633910300136385
 10
45.1118690313779069
 20
31.5716234652114593
 10
45.2007588676671332
 20
31.4690697476125507
 10
45.2777967257844622
 20
31.3571793997271513
 10
45.3429826057298868
 20
31.2359524215552504
 10
45.3963165075034212
 20
31.1053888130968588
 10
45.4377984311050511
 20
30.9654885743519799
 10
45.467428376534798
 20
30.8162517053205995
 10
45.4852063437926404
 20
30.6576782060027284
 10
45.4911323328785926
 20
30.4897680763983594
 10
45.4806446111869178
 20
30.225017053205999
 10
45.4491814461118793
 20
29.9901091405184204
 10
45.3967428376534912
 20
29.7850443383356094
 10
45.3233287858117393
 20
29.6098226466575696
 10
45.2298772169167904
 20
29.4584754433833602
 10
45.1173260572987829
 20
29.3250341064120086
 10
44.9856753069577167
 20
29.2094986357435182
 10
44.8349249658935989
 20
29.1118690313778998
 10
44.6709583901773613
 20
29.0342769440654891
 10
44.4996589358799568
 20
28.9788540245566217
 10
44.3210266030013713
 20
28.9456002728512907
 10
44.135061391541619
 20
28.9345156889495208
 10
43.9865919167803696
 20
28.940612210095491
 10
43.8454126875852808
 20
28.9589017735334195
 10
43.7115237039563596
 20
28.9893843792632993
 10
43.5849249658935989
 20
29.0320600272851301
 10
43.465616473397013
 20
29.0869287175989086
 10
43.3535982264665876
 20
29.1539904502046383
 10
43.2488702251023298
 20
29.2332452251023192
 10
43.1514324693042397
 20
29.3246930422919512
 10
43.0635018758526726
 20
29.4276091405184204
 10
42.9872953615279769
 20
29.5412687585265985
 10
42.9228129263301668
 20
29.6656718963164998
 10
42.8700545702592208
 20
29.8008185538881314
 10
42.8290202933151534
 20
29.9467087312414684
 10
42.7997100954979572
 20
30.1033424283765392
 10
42.7821239768076467
 20
30.2707196452933189
 10
42.7762619372442074
 20
30.4488403819918112
  0
LWPOLYLINE
  5
51
  8
PortLabels
 62
256
370
-1
  6
CONTINUOUS
100
AcDbEntity
100
AcDbPolyline
 90
41
 70
1
 10
43.2810368349249828
 20
30.4488403819918112
 10
43.2962141882674132
 20
30.188011596180079
 10
43.3417462482946902
 20
29.9621418826739401
 10
43.3758952933151534
 20
29.8623166780354694
 10
43.4176330150068281
 20
29.7712312414734015
 10
43.4669594133697217
 20
29.6888855729877186
 10
43.5238744884038269
 20
29.6152796725784491
 10
43.6531377899045197
 20
29.4941166439290612
 10
43.798090040927697
 20
29.4075716234652091
 10
43.9587312414734015
 20
29.3556446111869001
 10
44.135061391541619
 20
29.3383356070941304
 10
44.3101978171896391
 20
29.3557298772169197
 10
44.4699863574351966
 20
29.4079126875852701
 10
44.6144270122783126
 20
29.4948840381991815
 10
44.7435197817189731
 20
29.6166439290586609
 10
44.8004348567530926
 20
29.6907827421555197
 10
44.8497612551159719
 20
29.7740450204638414
 10
44.8914989768076467
 20
29.8664307639836295
 10
44.9256480218281098
 20
29.9679399727148699
 10
44.9711800818553868
 20
30.1983287858117286
 10
44.9863574351978173
 20
30.465211459754439
 10
44.9710948158253814
 20
30.7176841746248286
 10
44.9253069577080595
 20
30.937585266030009
 10
44.8909660641200574
 20
31.0353214529331503
 10
44.8489938608458516
 20
31.1249147339699803
 10
44.7993903478854065
 20
31.2063651091405205
 10
44.7421555252387577
 20
31.2796725784447496
 10
44.6126364256480272
 20
31.4008356070941304
 10
44.4682810368349379
 20
31.4873806275579788
 10
44.3090893587994614
 20
31.5393076398362915
 10
44.135061391541619
 20
31.5566166439290612
 10
43.9587312414734015
 20
31.5393929058663005
 10
43.798090040927697
 20
31.4877216916780291
 10
43.6531377899045197
 20
31.4016030013642613
 10
43.5238744884038269
 20
31.2810368349249686
 10
43.4669594133697217
 20
31.2077506821282391
 10
43.4176330150068281
 20
31.1256821282401113
 10
43.3758952933151534
 20
31.0348311732605708
 10
43.3417462482946902
 20
30.9351978171896285
 10
43.2962141882674132
 20
30.7095839017735308
 10
43.2810368349249828
 20
30.4488403819918112
  0
LWPOLYLINE
  5
52
  8
PortLabels
 62
256
370
-1
  6
CONTINUOUS
100
AcDbEntity
100
AcDbPolyline
 90
19
 70
1
 10
46.601637107776277
 20
29.0
 10
45.7148703956343923
 20
31.8976807639836295
 10
46.2223738062755913
 20
31.8976807639836295
 10
46.6834924965893734
 20
30.2251023192360186
 10
46.855388813096873
 20
29.6030013642564818
 10
47.005457025920883
 20
30.2005457025920911
 10
47.4665757162346722
 20
31.8976807639836295
 10
47.9713506139154333
 20
31.8976807639836295
 10
48.4051841746248428
 20
30.2169167803547083
 10
48.5497953615279769
 20
29.6630286493860886
 10
48.7162346521146077
 20
30.2223738062755807
 10
49.212824010914062
 20
31.8976807639836295
 10
49.6903137789904576
 20
31.8976807639836295
 10
48.7844474761255213
 20
29.0
 10
48.2742155525238772
 20
29.0
 10
47.8130968622101094
 20
30.7353342428376486
 10
47.7012278308322095
 20
31.2291950886766685
 10
47.1145975443383378
 20
29.0
 10
46.601637107776277
 20
29.0
  0
LWPOLYLINE
  5
53
  8
PortLabels
 62
256
370
-1
  6
CONTINUOUS
100
AcDbEntity
100
AcDbPolyline
 90
76
 70
1
 10
52.0859481582537569
 20
29.9331514324693089
 10
52.5934515688949631
 20
29.8703956343792605
 10
52.5206343792633135
 20
29.6604706684856794
 10
52.422237380627557
 20
29.4754433833560689
 10
52.2982605729877292
 20
29.3153137789904505
 10
52.1487039563438017
 20
29.1800818553888099
 10
51.9751023192360293
 20
29.0726466575716209
 10
51.7789904502046525
 20
28.9959072305593502
 10
51.5603683492496714
 20
28.9498635743519799
 10
51.319236016371093
 20
28.9345156889495208
 10
51.1644142223738214
 20
28.9406335266030013
 10
51.0178206002728629
 20
28.9589870395634392
 10
50.8794551500682175
 20
28.9895762278308311
 10
50.7493178717598994
 20
29.0324010914051804
 10
50.6274087653478873
 20
29.0874616302864908
 10
50.5137278308322024
 20
29.1547578444747586
 10
50.4082750682128307
 20
29.234289733969991
 10
50.311050477489772
 20
29.3260572987721702
 10
50.2237593792633135
 20
29.4288668144611201
 10
50.1481070941336995
 20
29.5415245566166398
 10
50.0840936221009514
 20
29.66403052523874
 10
50.0317189631650834
 20
29.7963847203274206
 10
49.9909831173260599
 20
29.9385871418826817
 10
49.9618860845839095
 20
30.090637789904509
 10
49.9444278649386177
 20
30.2525366643929097
 10
49.9386084583901777
 20
30.4242837653478908
 10
49.9444918144611307
 20
30.6019781718963202
 10
49.9621418826739472
 20
30.769440654843109
 10
49.9915586630286626
 20
30.9266712141882714
 10
50.0327421555252414
 20
31.0736698499317896
 10
50.0856923601637192
 20
31.2104365620736708
 10
50.1504092769440675
 20
31.3369713506139114
 10
50.2268929058663076
 20
31.4532742155525291
 10
50.3151432469304325
 20
31.5593451568894992
 10
50.4127728512960473
 20
31.6539904502046383
 10
50.5173942701227929
 20
31.7360163710777599
 10
50.6290075034106621
 20
31.8054229195088709
 10
50.7476125511596265
 20
31.8622100954979501
 10
50.8732094133697217
 20
31.9063778990450189
 10
51.0057980900409405
 20
31.93792633015007
 10
51.1453785811732828
 20
31.9568553888130999
 10
51.2919508867667204
 20
31.9631650750341088
 10
51.4339188267394292
 20
31.9569832878581188
 10
51.5692360163710788
 20
31.938437926330149
 10
51.6979024556616693
 20
31.9075289904501993
 10
51.8199181446111865
 20
31.8642564802182804
 10
51.9352830832196517
 20
31.8086203956343816
 10
52.0439972714870365
 20
31.7406207366984994
 10
52.1460607094133834
 20
31.6602575034106408
 10
52.2414733969986429
 20
31.5675306957708095
 10
52.3278052523874635
 20
31.4635914051841787
 10
52.40262619372443
 20
31.3495907230559396
 10
52.4659362210095566
 20
31.2255286493860886
 10
52.5177353342428432
 20
31.0914051841746293
 10
52.55802353342429
 20
30.9472203274215509
 10
52.5868008185538969
 20
30.7929740791268713
 10
52.6040671896316567
 20
30.6286664392905799
 10
52.6098226466575767
 20
30.4542974079126907
 10
52.6070941336971529
 20
30.3233287858117286
 10
50.4461118690313768
 20
30.3233287858117286
 10
50.4732264665757171
 20
30.098567530695771
 10
50.5272851296043726
 20
29.9017735334242793
 10
50.6082878581173432
 20
29.7329467939972716
 10
50.7162346521146077
 20
29.5920873124147299
 10
50.845156889495243
 20
29.48107094133697
 10
50.9890859481582623
 20
29.4017735334242793
 10
51.1480218281036869
 20
29.3541950886766685
 10
51.3219645293315168
 20
29.3383356070941304
 10
51.4520804911323495
 20
29.3472032742155484
 10
51.5723055934515813
 20
29.3738062755798097
 10
51.6826398362892334
 20
29.4181446111869001
 10
51.783083219645313
 20
29.4802182810368301
 10
51.8736357435197917
 20
29.5617326057298797
 10
51.9542974079126978
 20
29.6643929058663005
 10
52.0250682128240172
 20
29.7881991814461102
 10
52.0859481582537569
 20
29.9331514324693089
  0
LWPOLYLINE
  5
54
  8
PortLabels
 62
256
370
-1
  6
CONTINUOUS
100
AcDbEntity
100
AcDbPolyline
 90
18
 70
1
 10
50.4733969986357494
 20
30.7271487039563489
 10
52.0914051841746328
 20
30.7271487039563489
 10
52.0675306957708131
 20
30.8985334242837695
 10
52.0286493860846022
 20
31.0470668485675283
 10
51.9747612551159719
 20
31.1727489768076396
 10
51.9058663028649505
 20
31.2755798090040891
 10
51.7798431105047925
 20
31.3997271487039598
 10
51.6364256480218415
 20
31.4884038199181511
 10
51.4756139154161119
 20
31.5416098226466595
 10
51.2974079126876035
 20
31.5593451568894992
 10
51.1349761255116135
 20
31.5451909959072303
 10
50.986016371077767
 20
31.5027285129604415
 10
50.8505286493860922
 20
31.4319577080491115
 10
50.7285129604365679
 20
31.3328785811732615
 10
50.6261084583901777
 20
31.2100954979536205
 10
50.5494542974079195
 20
31.0682128240109208
 10
50.498550477489772
 20
30.9072305593451588
 10
50.4733969986357494
 20
30.7271487039563489
  0
LWPOLYLINE
  5
55
  8
PortLabels
 62
256
370
-1
  6
CONTINUOUS
100
AcDbEntity
100
AcDbPolyline
 90
35
 70
1
 10
53.2046384720327623
 20
29.0
 10
53.2046384720327623
 20
31.8976807639836295
 10
53.6466575716234786
 20
31.8976807639836295
 10
53.6466575716234786
 20
31.4583901773533405
 10
53.7296214188267527
 20
31.5994201909959109
 10
53.8093451568895134
 20
31.7141882673942703
 10
53.8858287858117535
 20
31.8026944065484294
 10
53.9590723055934731
 20
31.8649386084583917
 10
54.0324863574352037
 20
31.9079126875852594
 10
54.1094815825375264
 20
31.9386084583901813
 10
54.1900579809004199
 20
31.9570259208731215
 10
54.2742155525238843
 20
31.9631650750341088
 10
54.398874488403834
 20
31.9532742155525185
 10
54.5245566166439488
 20
31.9236016371077795
 10
54.6512619372442146
 20
31.87414733969986
 10
54.7789904502046454
 20
31.8049113233287812
 10
54.6098226466575767
 20
31.3492496589358787
 10
54.5197817189631735
 20
31.3958049113233209
 10
54.4297407912687703
 20
31.4290586630286484
 10
54.3396998635743671
 20
31.4490109140518399
 10
54.2496589358799497
 20
31.4556616643929097
 10
54.1712141882674132
 20
31.4496077762619386
 10
54.0968622100955088
 20
31.4314461118690289
 10
54.0266030013642649
 20
31.4011766712141913
 10
53.9604365620736814
 20
31.3587994542974116
 10
53.9009208731241571
 20
31.3056787175989086
 10
53.8506139154160977
 20
31.2431787175989086
 10
53.8095156889495314
 20
31.1712994542974116
 10
53.77762619372443
 20
31.0900409276944103
 10
53.7418144611187003
 20
30.95600272851296
 10
53.7162346521146077
 20
30.8158253751705296
 10
53.7008867667121521
 20
30.669508867667119
 10
53.6957708049113265
 20
30.5170532060027284
 10
53.6957708049113265
 20
29.0
 10
53.2046384720327623
 20
29.0
  0
LWPOLYLINE
  5
56
  8
PortLabels
 62
256
370
-1
  6
CONTINUOUS
100
AcDbEntity
100
AcDbPolyline
 90
18
 70
1
 10
39.0818553888131035
 20
22.7571623465211488
 10
38.5907230559345322
 20
22.7571623465211488
 10
38.5907230559345322
 20
25.8867667121418812
 10
38.3857435197817267
 20
25.7175989085948196
 10
38.1255115961800897
 20
25.5484311050477508
 10
37.8523192360163776
 20
25.4004092769440604
 10
37.6084583901773613
 20
25.2946793997271513
 10
37.6084583901773613
 20
25.769440654843109
 10
37.8079809004092766
 20
25.8714188267394292
 10
37.9945429740791312
 20
25.9836289222373793
 10
38.1681446111869107
 20
26.10607094133697
 10
38.3287858117326223
 20
26.2387448840382014
 10
38.4716916780354765
 20
26.375511596180079
 10
38.5920873124147406
 20
26.5102319236016406
 10
38.6899727148704073
 20
26.6429058663028613
 10
38.7653478854024627
 20
26.7735334242837695
 10
39.0818553888131035
 20
26.7735334242837695
 10
39.0818553888131035
 20
22.7571623465211488
  0
LWPOLYLINE
  5
57
  8
PortLabels
 62
256
370
-1
  6
CONTINUOUS
100
AcDbEntity
100
AcDbPolyline
 90
83
 70
1
 10
42.9208731241473487
 20
23.2291950886766685
 10
42.9208731241473487
 20
22.7571623465211488
 10
40.2769440654843223
 20
22.7571623465211488
 10
40.2885402455661676
 20
22.9311050477489786
 10
40.3342428376534912
 20
23.0982264665757207
 10
40.3923090040927804
 20
23.23277626193725
 10
40.4655525238744929
 20
23.3663028649386106
 10
40.5539733969986429
 20
23.4988062755798097
 10
40.6575716234652234
 20
23.6302864938608401
 10
40.7811221009549882
 20
23.7663710777626207
 10
40.9293997271487129
 20
23.9126875852660312
 10
41.3001364256480272
 20
24.2360163710777599
 10
41.599761255115979
 20
24.4895122783083217
 10
41.8465211459754514
 20
24.7152114597544283
 10
42.0404160982264727
 20
24.9131139154161012
 10
42.1814461118690431
 20
25.0832196452933083
 10
42.2817189631650834
 20
25.2372953615279592
 10
42.3533424283765427
 20
25.3871077762619386
 10
42.3963165075034212
 20
25.5326568894952217
 10
42.4106412005457116
 20
25.6739427012278298
 10
42.3975954979536169
 20
25.8142053206002693
 10
42.3584583901773613
 20
25.9430422919508885
 10
42.2932298772169233
 20
26.0604536152796697
 10
42.2019099590723101
 20
26.1664392905866308
 10
42.0896145975443403
 20
26.2541780354706695
 10
41.9614597544338395
 20
26.3168485675306982
 10
41.8174454297408005
 20
26.3544508867667098
 10
41.6575716234652234
 20
26.3669849931787184
 10
41.4890859481582623
 20
26.3536834924965895
 10
41.3383356070941375
 20
26.3137789904501993
 10
41.2053206002728629
 20
26.2472714870395585
 10
41.0900409276944174
 20
26.1541609822646599
 10
40.9967598908594866
 20
26.037517053205999
 10
40.9297407912687632
 20
25.9004092769440604
 10
40.8889836289222472
 20
25.7428376534788512
 10
40.8744884038199174
 20
25.5648021828103715
 10
40.3697135061391634
 20
25.6166439290586609
 10
40.3871504092769626
 20
25.7536451227830803
 10
40.4135402455661819
 20
25.8822476125511614
 10
40.4488830150068281
 20
26.00245139836289
 10
40.4931787175989228
 20
26.1142564802182804
 10
40.5464273533424375
 20
26.2176628581173183
 10
40.6086289222373935
 20
26.3126705320600287
 10
40.6797834242837695
 20
26.3992795020463795
 10
40.7598908594815867
 20
26.4774897680763992
 10
40.8480985675306982
 20
26.546875
 10
40.9435538881309782
 20
26.607008867667119
 10
41.0462568212824124
 20
26.6578913710777599
 10
41.1562073669850008
 20
26.6995225102319189
 10
41.2734055252387577
 20
26.7319022851295998
 10
41.3978512960436689
 20
26.7550306957708095
 10
41.6684856753069681
 20
26.7735334242837695
 10
41.8086630286493914
 20
26.7685453615279698
 10
41.9413369713506228
 20
26.7535811732605708
 10
42.0665075034106479
 20
26.7286408594815796
 10
42.1841746248294669
 20
26.6937244201909998
 10
42.2943383356071081
 20
26.6488318553888099
 10
42.3969986357435289
 20
26.5939631650750314
 10
42.4921555252387577
 20
26.5291183492496607
 10
42.5798090040927804
 20
26.4542974079126907
 10
42.6584669167803696
 20
26.3721009549795298
 10
42.7266371077762699
 20
26.2851296043656184
 10
42.7843195770805025
 20
26.1933833560709388
 10
42.8315143246930532
 20
26.096862210095491
 10
42.868221350613922
 20
25.9955661664392892
 10
42.8944406548431232
 20
25.8894952251023192
 10
42.9101722373806425
 20
25.7786493860845809
 10
42.9154160982264727
 20
25.6630286493860886
 10
42.9092769440654891
 20
25.543485675306961
 10
42.8908594815825523
 20
25.4249658935879914
 10
42.8601637107776412
 20
25.3074693042291905
 10
42.8171896316507627
 20
25.1909959072305583
 10
42.7599761255116135
 20
25.0734993178717609
 10
42.6865620736698617
 20
24.9529331514324717
 10
42.5969474761255213
 20
24.82929740791268
 10
42.4911323328785926
 20
24.7025920873124107
 10
42.1879263301500771
 20
24.3983628922237408
 10
41.7339699863574367
 20
23.998635743519781
 10
41.3710777626193789
 20
23.6872442019099587
 10
41.1664392905866379
 20
23.4952251023192389
 10
41.0518417462483001
 20
23.3625511596180111
 10
40.9590723055934589
 20
23.2291950886766685
 10
42.9208731241473487
 20
23.2291950886766685
  0
LWPOLYLINE
  5
58
  8
PortLabels
 62
256
370
-1
  6
CONTINUOUS
100
AcDbEntity
100
AcDbPolyline
 90
12
 70
1
 10
44.7899045020463973
 20
22.7571623465211488
 10
43.2401091405184275
 20
26.7571623465211488
 10
43.8130968622101094
 20
26.7571623465211488
 10
44.8526603001364421
 20
23.8512960436562089
 10
44.9679399727148805
 20
23.5129604365620786
 10
45.0627557980900519
 20
23.1964529331514306
 10
45.1630286493860922
 20
23.5238744884038198
 10
45.2783083219645377
 20
23.8512960436562089
 10
46.3587994542974187
 20
26.7571623465211488
 10
46.8990450204638591
 20
26.7571623465211488
 10
45.3328785811732828
 20
22.7571623465211488
 10
44.7899045020463973
 20
22.7571623465211488
  0
LWPOLYLINE
  5
59
  8
PortLabels
 62
256
370
-1
  6
CONTINUOUS
100
AcDbEntity
100
AcDbPolyline
 90
38
 70
1
 10
48.9263301500682175
 20
22.7571623465211488
 10
48.9263301500682175
 20
26.7571623465211488
 10
50.3042291950886877
 20
26.7571623465211488
 10
50.7155525238745
 20
26.7428376534788512
 10
50.8797748976807824
 20
26.7249317871759899
 10
51.0163710777626278
 20
26.6998635743519799
 10
51.1819577080491186
 20
26.652285129604369
 10
51.3349249658935918
 20
26.5886766712141913
 10
51.4752728512960473
 20
26.5090381991814503
 10
51.6030013642564924
 20
26.4133697135061389
 10
51.7512789904502171
 20
26.2703785811732615
 10
51.8796043656207502
 20
26.1087994542974116
 10
51.9879774897680775
 20
25.9286323328785784
 10
52.0763983628922276
 20
25.7298772169167798
 10
52.1450375170532112
 20
25.5144099590722995
 10
52.1940654843110607
 20
25.2841064120054604
 10
52.223482264665769
 20
25.0389665757162305
 10
52.2332878581173432
 20
24.7789904502046383
 10
52.2266371077762699
 20
24.5576398362892192
 10
52.2066848567530783
 20
24.3492496589358787
 10
52.1734311050477473
 20
24.1538199181446096
 10
52.1268758526603122
 20
23.9713506139154191
 10
52.0699181446111865
 20
23.8029502046384707
 10
52.005457025920883
 20
23.6497271487039598
 10
51.9334924965893734
 20
23.5116814461118686
 10
51.8540245566166504
 20
23.3888130968622114
 10
51.7688437926330209
 20
23.2796725784447496
 10
51.6797407912687703
 20
23.1828103683492515
 10
51.5867155525238772
 20
23.0982264665757207
 10
51.4897680763983772
 20
23.02592087312415
 10
51.3857435197817267
 20
22.9637619372442003
 10
51.2714870395634534
 20
22.9096180081855394
 10
51.1469986357435289
 20
22.8634890859481601
 10
51.0122783083219673
 20
22.8253751705320589
 10
50.8672407912687703
 20
22.7955320600272806
 10
50.7118008185538969
 20
22.7742155525238701
 10
50.3697135061391634
 20
22.7571623465211488
 10
48.9263301500682175
 20
22.7571623465211488
  0
LWPOLYLINE
  5
5A
  8
PortLabels
 62
256
370
-1
  6
CONTINUOUS
100
AcDbEntity
100
AcDbPolyline
 90
32
 70
1
 10
49.4556616643929132
 20
23.2291950886766685
 10
50.3096862210095566
 20
23.2291950886766685
 10
50.4968451568895134
 20
23.2337994542974116
 10
50.6626875852660419
 20
23.2476125511596194
 10
50.8072135061391634
 20
23.2706343792632993
 10
50.930422919508878
 20
23.3028649386084616
 10
51.0372612551159719
 20
23.3434515688949489
 10
51.1326739427012313
 20
23.3915416098226494
 10
51.2166609822646706
 20
23.4471350613915384
 10
51.2892223738062825
 20
23.5102319236016406
 10
51.378154843110508
 20
23.6124658935879914
 10
51.4566848567530783
 20
23.7309004092769413
 10
51.5248124147339794
 20
23.8655354706684797
 10
51.5825375170532183
 20
24.0163710777626207
 10
51.6284959072305725
 20
24.1837482946794005
 10
51.6613233287858264
 20
24.3680081855388799
 10
51.6810197817189731
 20
24.5691507503410591
 10
51.6875852660300268
 20
24.7871759890859487
 10
51.6747100954979572
 20
25.0827933151432489
 10
51.636084583901777
 20
25.3420873124147299
 10
51.5717087312414932
 20
25.5650579809004093
 10
51.4815825375170633
 20
25.7517053206002693
 10
51.3730388813096965
 20
25.9062926330150098
 10
51.2534106412005599
 20
26.0330832196452917
 10
51.1226978171896533
 20
26.1320770804911291
 10
50.9809004092769626
 20
26.2032742155525185
 10
50.8582878581173432
 20
26.2390859481582588
 10
50.7032742155525327
 20
26.2646657571623514
 10
50.5158594815825523
 20
26.2800136425647999
 10
50.2960436562073667
 20
26.2851296043656184
 10
49.4556616643929132
 20
26.2851296043656184
 10
49.4556616643929132
 20
23.2291950886766685
  0
LWPOLYLINE
  5
5B
  8
PortLabels
 62
256
370
-1
  6
CONTINUOUS
100
AcDbEntity
100
AcDbPolyline
 90
99
 70
1
 10
55.8158253751705331
 20
24.1596180081855394
 10
56.3451568894952288
 20
24.02592087312415
 10
56.2993903478854065
 20
23.8677310709413391
 10
56.2453103683492657
 20
23.7192189631650798
 10
56.1829169508867778
 20
23.5803845497953617
 10
56.1122100954979715
 20
23.4512278308321989
 10
56.0331898021828181
 20
23.3317488062755807
 10
55.9458560709413462
 20
23.2219474761255107
 10
55.8502089017735557
 20
23.1218238403819889
 10
55.7462482946794182
 20
23.0313778990450189
 10
55.6351253410641391
 20
22.9511212482946796
 10
55.5179911323328952
 20
22.8815654843110501
 10
55.3948456684856865
 20
22.8227106070941304
 10
55.2656889495225272
 20
22.7745566166439311
 10
55.1305209754434031
 20
22.7371035129604415
 10
54.9893417462483001
 20
22.7103512960436511
 10
54.8421512619372606
 20
22.6942999658935811
 10
54.6889495225102422
 20
22.6889495225102316
 10
54.3807128240109137
 20
22.7054058663028613
 10
54.102660300136435
 20
22.7547748976807611
 10
53.9749531036834966
 20
22.7918016712141913
 10
53.8547919508867707
 20
22.8370566166439311
 10
53.7421768417462573
 20
22.890539733969991
 10
53.6371077762619421
 20
22.9522510231923604
 10
53.4466234652114665
 20
23.0986527967257906
 10
53.2803547066848608
 20
23.2745566166439311
 10
53.1383015006821324
 20
23.4799624829467994
 10
53.0204638472032812
 20
23.7148703956343816
 10
52.9279502046384778
 20
23.9691336971350601
 10
52.8618690313779069
 20
24.2326057298772106
 10
52.8222203274215616
 20
24.5052864938608401
 10
52.8090040927694488
 20
24.7871759890859487
 10
52.8239256480218415
 20
25.0896145975443403
 10
52.8686903137789983
 20
25.3721009549795404
 10
52.9432980900409333
 20
25.6346350613915384
 10
53.0477489768076467
 20
25.877216916780359
 10
53.1797407912687632
 20
26.0958390177353294
 10
53.336971350613922
 20
26.2864938608458409
 10
53.519440654843109
 20
26.4491814461118686
 10
53.7271487039563524
 20
26.5839017735334195
 10
53.9530184174624878
 20
26.6895463847203303
 10
54.1899727148704073
 20
26.7650068212824017
 10
54.4380115961800897
 20
26.810283083219641
 10
54.697135061391549
 20
26.8253751705320589
 10
54.9853342428376664
 20
26.8062755798090002
 10
55.1204809004092766
 20
26.7824010914051804
 10
55.2496589358799497
 20
26.7489768076398313
 10
55.3728683492496714
 20
26.70600272851296
 10
55.4901091405184275
 20
26.6534788540245593
 10
55.6013813096862179
 20
26.5914051841746293
 10
55.7066848567530712
 20
26.5197817189631699
 10
55.8051244884038198
 20
26.4395037517053204
 10
55.8958049113233244
 20
26.3514665757162412
 10
55.9787261255115993
 20
26.2556701909959109
 10
56.0538881309686303
 20
26.1521145975443403
 10
56.1212909276944174
 20
26.0407997953615293
 10
56.1809345156889606
 20
25.9217257844474815
 10
56.2769440654843152
 20
25.6603001364256507
 10
55.7557980900409405
 20
25.537517053205999
 10
55.6783765347885549
 20
25.7409618008185497
 10
55.5852660300136421
 20
25.9147339699863615
 10
55.4764665757162305
 20
26.0588335607094095
 10
55.3519781718963202
 20
26.1732605729877186
 10
55.2111186903137821
 20
26.2604024556616586
 10
55.0532060027285155
 20
26.3226466575716209
 10
54.8782401091405205
 20
26.3599931787175983
 10
54.6862210095497971
 20
26.3724420190995907
 10
54.46512619372443
 20
26.3586289222373793
 10
54.2629604365620821
 20
26.3171896316507485
 10
54.0797237380627678
 20
26.2481241473396985
 10
53.9154160982264727
 20
26.151432469304229
 10
53.7720839017735415
 20
26.0314631650750314
 10
53.65177353342429
 20
25.892564802182811
 10
53.5544849931787184
 20
25.7347373806275606
 10
53.4802182810368407
 20
25.5579809004092802
 10
53.4253069577080595
 20
25.3703103683492515
 10
53.386084583901777
 20
25.1797407912687596
 10
53.3625511596180075
 20
24.9862721691678011
 10
53.3547066848567582
 20
24.7899045020463795
 10
53.3640006821282498
 20
24.5428888130968588
 10
53.3918826739427033
 20
24.31207366984993
 10
53.43835266030014
 20
24.0974590723055897
 10
53.5034106412005528
 20
23.8990450204638414
 10
53.5880798090040997
 20
23.7207537517053204
 10
53.693383356070953
 20
23.5665075034106408
 10
53.8193212824011127
 20
23.4363062755798097
 10
53.9658935879945574
 20
23.33015006821282
 10
54.1260231923601793
 20
23.247783083219641
 10
54.2926330150068281
 20
23.1889495225102316
 10
54.465723055934518
 20
23.1536493860845809
 10
54.6452933151432489
 20
23.1418826739426997
 10
54.8591405184174619
 20
23.1579126875852701
 10
55.0559345156889606
 20
23.20600272851296
 10
55.2356753069577167
 20
23.28615279672578
 10
55.3983628922237443
 20
23.3983628922237408
 10
55.5400750341064082
 20
23.5421214188267385
 10
55.6568894952251014
 20
23.7169167803547083
 10
55.7488062755798097
 20
23.9227489768076396
 10
55.8158253751705331
 20
24.1596180081855394
  0
LWPOLYLINE
  5
5C
  8
PortLabels
 62
256
370
-1
  6
CONTINUOUS
100
AcDbEntity
100
AcDbPolyline
 90
131
 70
1
 10
7.2510231923601687
 20
6.2851296043656211
 10
7.7503410641200503
 20
6.3287858117326046
 10
7.7739597544338288
 20
6.1854536152796724
 10
7.8093451568894992
 20
6.0555934515688952
 10
7.85649727148704
 20
5.9392053206002728
 10
7.9154160982264692
 20
5.8362892223738063
 10
7.9891712141882714
 20
5.7447135061391537
 10
8.0808321964529313
 20
5.6623465211459747
 10
8.1903990450204596
 20
5.5891882673942694
 10
8.3178717598908598
 20
5.5252387448840379
 10
8.4585607094133692
 20
5.4733117326057297
 10
8.6077762619372393
 20
5.4362210095497954
 10
8.7655184174624807
 20
5.4139665757162341
 10
8.9317871759890899
 20
5.4065484311050476
 10
9.078785811732601
 20
5.4121759890859478
 10
9.2169167803547083
 20
5.4290586630286493
 10
9.3461800818553904
 20
5.457196452933152
 10
9.4665757162346509
 20
5.4965893587994543
 10
9.5751193724420212
 20
5.5457878581173254
 10
9.6688267394270113
 20
5.6033424283765347
 10
9.7476978171896285
 20
5.6692530695770804
 10
9.8117326057298797
 20
5.7435197817189634
 10
9.8612721691678011
 20
5.8237551159618013
 10
9.8966575716234608
 20
5.9075716234652118
 10
9.9178888130968588
 20
5.9949693042291958
 10
9.9249658935879914
 20
6.0859481582537516
 10
9.9181446111869001
 20
6.177097544338336
 10
9.8976807639836295
 20
6.2622783083219646
 10
9.8635743519781691
 20
6.3414904502046383
 10
9.8158253751705296
 20
6.4147339699863579
 10
9.7523874488403806
 20
6.4821793997271486
 10
9.671214188267399
 20
6.54399727148704
 10
9.5723055934515706
 20
6.6001875852660286
 10
9.4556616643929097
 20
6.6507503410641204
 10
9.1971350613915384
 20
6.730900409276944
 10
8.7435197817189589
 20
6.8458390177353348
 10
8.2748976807639814
 20
6.9744201909959074
 10
8.1024897680763992
 20
7.0358969986357431
 10
7.9713506139154191
 20
7.0954979536152791
 10
7.8372271487039598
 20
7.1750511596180084
 10
7.7213506139154191
 20
7.2636425648021827
 10
7.6237210095498007
 20
7.3612721691678038
 10
7.5443383356070903
 20
7.4679399727148708
 10
7.482861527967259
 20
7.5824522510231924
 10
7.4389495225102316
 20
7.7036152796725794
 10
7.4126023192360186
 20
7.8314290586630291
 10
7.4038199181446096
 20
7.9658935879945432
 10
7.4145634379263292
 20
8.1148533424283755
 10
7.4467939972714809
 20
8.2588676671214181
 10
7.500511596180079
 20
8.397936562073669
 10
7.5757162346521092
 20
8.5320600272851301
 10
7.6715552523874493
 20
8.6557810368349237
 10
7.7871759890859487
 20
8.7636425648021827
 10
7.9225784447476109
 20
8.8556446111869036
 10
8.0777626193724394
 20
8.9317871759890863
 10
8.2474420190995907
 20
8.9914733969986358
 10
8.4263301500682104
 20
9.0341064120054568
 10
8.6144270122783091
 20
9.0596862210095495
 10
8.8117326057298797
 20
9.0682128240109137
 10
9.0275409276943996
 20
9.0592598908594812
 10
9.2302182810368301
 20
9.032401091405184
 10
9.4197646657571603
 20
8.9876364256480219
 10
9.5961800818553904
 20
8.924965893587995
 10
9.7562244201909998
 20
8.844901091405184
 10
9.8966575716234608
 20
8.7479536152796733
 10
10.0174795361527984
 20
8.6341234652114593
 10
10.1186903137789912
 20
8.5034106412005457
 10
10.1995225102319189
 20
8.3596521145975444
 10
10.2592087312414684
 20
8.2066848567530695
 10
10.2977489768076396
 20
8.0445088676671208
 10
10.3151432469304183
 20
7.8731241473397002
 10
9.8076398362892192
 20
7.8349249658935882
 10
9.774982946794001
 20
8.012960436562075
 10
9.7179399727148699
 20
8.1678035470668497
 10
9.6365109140518399
 20
8.2994542974079124
 10
9.5306957708049111
 20
8.4079126875852666
 10
9.3986186903137785
 20
8.4926671214188261
 10
9.2384038199181404
 20
8.5532060027285137
 10
9.0500511596180111
 20
8.589529331514326
 10
8.8335607094133692
 20
8.6016371077762628
 10
8.6097373806275606
 20
8.5906377899045019
 10
8.418485675306961
 20
8.5576398362892228
 10
8.2598055934515706
 20
8.5026432469304218
 10
8.1336971350613894
 20
8.4256480218281045
 10
8.0376023192360186
 20
8.3331343792633028
 10
7.9689631650750314
 20
8.2315825375170544
 10
7.9277796725784491
 20
8.1209924965893592
 10
7.9140518417462502
 20
8.001364256480219
 10
7.9237721691678011
 20
7.898362892223739
 10
7.9529331514324717
 20
7.8049113233287857
 10
8.0015347885402406
 20
7.7210095497953608
 10
8.0695770804911291
 20
7.6466575716234653
 10
8.1767564802182804
 20
7.5766541609822653
 10
8.3454979536152791
 20
7.505798090040928
 10
8.5758015006821289
 20
7.4340893587994543
 10
8.8676671214188296
 20
7.3615279672578442
 10
9.4116643929058696
 20
7.2247612551159612
 10
9.6076909959072303
 20
7.1632844474761246
 10
9.7530695770804883
 20
7.1064120054570257
 10
9.9162687585266092
 20
7.0205491132332876
 10
10.0566166439290612
 20
6.9239427012278316
 10
10.1741132332878585
 20
6.8165927694406552
 10
10.2687585266030013
 20
6.69849931787176
 10
10.3415757162346509
 20
6.5703444747612547
 10
10.3935879945429797
 20
6.4328103683492497
 10
10.4247953615279698
 20
6.285896998635744
 10
10.4351978171896285
 20
6.1296043656207368
 10
10.4237721691678011
 20
5.9722885402455663
 10
10.3894952251023192
 20
5.8195770804911326
 10
10.332366984993179
 20
5.6714699863574349
 10
10.2523874488403806
 20
5.527967257844475
 10
10.1510061391541591
 20
5.3946111869031377
 10
10.0296725784447496
 20
5.2769440654843116
 10
9.8883867667121415
 20
5.174965893587995
 10
9.7271487039563489
 20
5.0886766712141887
 10
9.5505627557980901
 20
5.0200375170532059
 10
9.3632332878581188
 20
4.9710095497953617
 10
9.1651603001364208
 20
4.9415927694406552
 10
8.9563437926330103
 20
4.9317871759890863
 10
8.6958560709413391
 20
4.9416780354706686
 10
8.457366984993179
 20
4.9713506139154164
 10
8.2408765347885407
 20
5.0208049113233297
 10
8.0463847203274206
 20
5.0900409276944067
 10
7.872783083219641
 20
5.1791439290586627
 10
7.7189631650750314
 20
5.288199181446112
 10
7.5849249658935918
 20
5.4172066848567528
 10
7.4706684856753114
 20
5.566166439290587
 10
7.3786664392905905
 20
5.7303035470668489
 10
7.3113915416098187
 20
5.9048431105047747
 10
7.2688437926330209
 20
6.0897851296043646
 10
7.2510231923601687
 20
6.2851296043656211
  0
LWPOLYLINE
  5
5D
  8
PortLabels
 62
256
370
-1
  6
CONTINUOUS
100
AcDbEntity
100
AcDbPolyline
 90
76
 70
1
 10
13.0791268758526584
 20
5.9331514324693044
 10
13.5866302864938611
 20
5.8703956343792632
 10
13.5138130968622114
 20
5.6604706684856758
 10
13.4154160982264692
 20
5.4754433833560707
 10
13.2914392905866308
 20
5.3153137789904514
 10
13.1418826739426997
 20
5.1800818553888126
 10
12.9682810368349202
 20
5.0726466575716236
 10
12.7721691678035505
 20
4.9959072305593448
 10
12.5535470668485694
 20
4.9498635743519781
 10
12.312414733969991
 20
4.9345156889495234
 10
12.1575929399727194
 20
4.9406335266030013
 10
12.0109993178717609
 20
4.9589870395634366
 10
11.872633867667119
 20
4.989576227830832
 10
11.7424965893588009
 20
5.032401091405184
 10
11.6205874829467994
 20
5.0874616302864926
 10
11.5069065484311004
 20
5.1547578444747604
 10
11.4014537858117286
 20
5.2342897339699856
 10
11.3042291950886806
 20
5.3260572987721693
 10
11.2169380968622114
 20
5.4288668144611192
 10
11.1412858117326117
 20
5.5415245566166451
 10
11.0772723396998707
 20
5.6640305252387462
 10
11.0248976807639814
 20
5.7963847203274224
 10
10.9841618349249686
 20
5.9385871418826746
 10
10.955064802182811
 20
6.0906377899045019
 10
10.9376065825375193
 20
6.2525366643929061
 10
10.9317871759890899
 20
6.4242837653478846
 10
10.9376705320600287
 20
6.6019781718963166
 10
10.9553206002728487
 20
6.7694406548431107
 10
10.9847373806275606
 20
6.9266712141882678
 10
11.02592087312415
 20
7.0736698499317878
 10
11.0788710777626207
 20
7.2104365620736708
 10
11.1435879945429797
 20
7.3369713506139158
 10
11.2200716234652091
 20
7.4532742155525238
 10
11.3083219645293305
 20
7.5593451568894956
 10
11.4059515688949595
 20
7.6539904502046392
 10
11.5105729877216909
 20
7.7360163710777634
 10
11.6221862210095495
 20
7.8054229195088682
 10
11.7407912687585316
 20
7.8622100954979537
 10
11.8663881309686197
 20
7.9063778990450206
 10
11.9989768076398384
 20
7.9379263301500682
 10
12.1385572987721702
 20
7.9568553888130973
 10
12.2851296043656184
 20
7.963165075034107
 10
12.4270975443383414
 20
7.9569832878581179
 10
12.562414733969991
 20
7.9384379263301508
 10
12.6910811732605708
 20
7.9075289904502064
 10
12.8130968622100987
 20
7.8642564802182813
 10
12.9284618008185497
 20
7.8086203956343789
 10
13.0371759890859487
 20
7.7406207366984994
 10
13.1392394270122814
 20
7.6602575034106417
 10
13.2346521145975409
 20
7.5675306957708051
 10
13.3209839699863615
 20
7.4635914051841743
 10
13.3958049113233315
 20
7.3495907230559343
 10
13.4591149386084616
 20
7.2255286493860842
 10
13.5109140518417412
 20
7.0914051841746248
 10
13.5512022510231915
 20
6.9472203274215554
 10
13.5799795361527984
 20
6.7929740791268758
 10
13.5972459072305583
 20
6.628666439290587
 10
13.6030013642564818
 20
6.4542974079126871
 10
13.6002728512960402
 20
6.3233287858117322
 10
11.439290586630289
 20
6.3233287858117322
 10
11.4664051841746293
 20
6.0985675306957701
 10
11.5204638472032705
 20
5.9017735334242829
 10
11.6014665757162412
 20
5.7329467939972707
 10
11.7094133697135092
 20
5.5920873124147326
 10
11.838335607094141
 20
5.4810709413369718
 10
11.9822646657571603
 20
5.4017735334242838
 10
12.1412005457025884
 20
5.3541950886766712
 10
12.3151432469304289
 20
5.3383356070941339
 10
12.4452592087312404
 20
5.3472032742155529
 10
12.5654843110504792
 20
5.3738062755798097
 10
12.6758185538881314
 20
5.4181446111869036
 10
12.7762619372442003
 20
5.4802182810368354
 10
12.8668144611186896
 20
5.561732605729877
 10
12.9474761255115993
 20
5.6643929058663023
 10
13.0182469304229187
 20
5.788199181446112
 10
13.0791268758526584
 20
5.9331514324693044
  0
LWPOLYLINE
  5
5E
  8
PortLabels
 62
256
370
-1
  6
CONTINUOUS
100
AcDbEntity
100
AcDbPolyline
 90
18
 70
1
 10
11.4665757162346509
 20
6.7271487039563436
 10
13.0845839017735308
 20
6.7271487039563436
 10
13.060709413369711
 20
6.898533424283765
 10
13.0218281036834895
 20
7.0470668485675301
 10
12.9679399727148699
 20
7.1727489768076396
 10
12.8990450204638485
 20
7.2755798090040926
 10
12.7730218281036798
 20
7.3997271487039562
 10
12.6296043656207395
 20
7.4884038199181449
 10
12.4687926330150098
 20
7.5416098226466577
 10
12.2905866302864908
 20
7.5593451568894956
 10
12.1281548431105115
 20
7.5451909959072312
 10
11.9791950886766685
 20
7.5027285129604371
 10
11.8437073669849902
 20
7.4319577080491133
 10
11.7216916780354694
 20
7.3328785811732606
 10
11.6192871759890899
 20
7.2100954979536152
 10
11.542633015006821
 20
7.0682128240109137
 10
11.4917291950886806
 20
6.9072305593451571
 10
11.4665757162346509
 20
6.7271487039563436
  0
LWPOLYLINE
  5
5F
  8
PortLabels
 62
256
370
-1
  6
CONTINUOUS
100
AcDbEntity
100
AcDbPolyline
 90
35
 70
1
 10
14.1978171896316496
 20
5.0
 10
14.1978171896316496
 20
7.8976807639836304
 10
14.6398362892223695
 20
7.8976807639836304
 10
14.6398362892223695
 20
7.4583901773533423
 10
14.7228001364256507
 20
7.5994201909959074
 10
14.8025238744884007
 20
7.7141882673942703
 10
14.8790075034106408
 20
7.802694406548432
 10
14.9522510231923604
 20
7.8649386084583908
 10
15.0256650750341088
 20
7.9079126875852674
 10
15.1026603001364208
 20
7.9386084583901777
 10
15.1832366984993214
 20
7.9570259208731251
 10
15.2673942701227787
 20
7.963165075034107
 10
15.3920532060027284
 20
7.9532742155525247
 10
15.5177353342428397
 20
7.9236016371077769
 10
15.644440654843109
 20
7.8741473396998636
 10
15.7721691678035505
 20
7.8049113233287857
 10
15.6030013642564818
 20
7.3492496589358796
 10
15.5129604365620786
 20
7.3958049113233288
 10
15.4229195088676683
 20
7.4290586630286501
 10
15.3328785811732615
 20
7.4490109140518417
 10
15.2428376534788512
 20
7.4556616643929061
 10
15.1643929058663005
 20
7.4496077762619377
 10
15.0900409276944103
 20
7.4314461118690316
 10
15.0197817189631699
 20
7.4011766712141878
 10
14.9536152796725794
 20
7.358799454297408
 10
14.8940995907230516
 20
7.3056787175989086
 10
14.8437926330150098
 20
7.2431787175989086
 10
14.8026944065484294
 20
7.171299454297408
 10
14.7708049113233315
 20
7.0900409276944067
 10
14.7349931787175983
 20
6.9560027285129609
 10
14.7094133697135092
 20
6.8158253751705322
 10
14.6940654843110501
 20
6.6695088676671208
 10
14.6889495225102316
 20
6.5170532060027284
 10
14.6889495225102316
 20
5.0
 10
14.1978171896316496
 20
5.0
  0
LWPOLYLINE
  5
60
  8
PortLabels
 62
256
370
-1
  6
CONTINUOUS
100
AcDbEntity
100
AcDbPolyline
 90
12
 70
1
 10
16.8690313778990486
 20
5.0
 10
15.766712141882671
 20
7.8976807639836304
 10
16.2851296043656184
 20
7.8976807639836304
 10
16.9072305593451588
 20
6.1623465211459756
 10
17.0040927694406498
 20
5.8758526603001364
 10
17.0927694406548412
 20
5.5784447476125507
 10
17.171214188267399
 20
5.830832196452933
 10
17.2755798090040891
 20
6.1296043656207368
 10
17.919508867667119
 20
7.8976807639836304
 10
18.4242837653478801
 20
7.8976807639836304
 10
17.3274215552523891
 20
5.0
 10
16.8690313778990486
 20
5.0
  0
LWPOLYLINE
  5
61
  8
PortLabels
 62
256
370
-1
  6
CONTINUOUS
100
AcDbEntity
100
AcDbPolyline
 90
5
 70
1
 10
18.8608458390177312
 20
8.435197817189632
 10
18.8608458390177312
 20
9.0
 10
19.3519781718963202
 20
9.0
 10
19.3519781718963202
 20
8.435197817189632
 10
18.8608458390177312
 20
8.435197817189632
  0
LWPOLYLINE
  5
62
  8
PortLabels
 62
256
370
-1
  6
CONTINUOUS
100
AcDbEntity
100
AcDbPolyline
 90
5
 70
1
 10
18.8608458390177312
 20
5.0
 10
18.8608458390177312
 20
7.8976807639836304
 10
19.3519781718963202
 20
7.8976807639836304
 10
19.3519781718963202
 20
5.0
 10
18.8608458390177312
 20
5.0
  0
LWPOLYLINE
  5
63
  8
PortLabels
 62
256
370
-1
  6
CONTINUOUS
100
AcDbEntity
100
AcDbPolyline
 90
84
 70
1
 10
21.9904502046384707
 20
6.0613915416098223
 10
22.4733969986357422
 20
5.9986357435197819
 10
22.4184004092769413
 20
5.7625341064120059
 10
22.3325375170532112
 20
5.5535470668485676
 10
22.2780312073669933
 20
5.4592215211459756
 10
22.2158083219645306
 20
5.3716746248294678
 10
22.1458688608458374
 20
5.2909063778990451
 10
22.0682128240109066
 20
5.2169167803547074
 10
21.8958901773533405
 20
5.0933663028649381
 10
21.7049795361527913
 20
5.0051159618008194
 10
21.4954809004092695
 20
4.9521657571623461
 10
21.2673942701227787
 20
4.9345156889495234
 10
21.1223354365620786
 20
4.940590893587995
 10
20.9845668485675283
 20
4.9588165075034114
 10
20.8540885061391599
 20
4.989192530695771
 10
20.7309004092769413
 20
5.0317189631650736
 10
20.6150025579809011
 20
5.0863958049113229
 10
20.5063949522510214
 20
5.1532230559345154
 10
20.4050775920873093
 20
5.2322007162346518
 10
20.3110504774897684
 20
5.3233287858117322
 10
20.2263173601637085
 20
5.4257972373806274
 10
20.1528819918144606
 20
5.5387960436562071
 10
20.0907443724420212
 20
5.6623252046384724
 10
20.0399045020463795
 20
5.7963847203274206
 10
20.0003623806275606
 20
5.9409745907230551
 10
19.9721180081855394
 20
6.0960948158253743
 10
19.9551713847203303
 20
6.2617453956343789
 10
19.9495225102319189
 20
6.4379263301500682
 10
19.9592428376534805
 20
6.6652455661664396
 10
19.9884038199181404
 20
6.877899045020464
 10
20.03700545702592
 20
7.0758867667121406
 10
20.1050477489768085
 20
7.2592087312414737
 10
20.1929570259208795
 20
7.424198499317872
 10
20.3011596180081888
 20
7.5671896316507503
 10
20.42965552523874
 20
7.6881821282401086
 10
20.5784447476125507
 20
7.7871759890859487
 10
20.7408765347885407
 20
7.8641712141882678
 10
20.9103001364256507
 20
7.919167803547067
 10
21.0867155525238701
 20
7.952165757162347
 10
21.2701227830832202
 20
7.963165075034107
 10
21.4953956343792605
 20
7.9482435197817196
 10
21.6991814461118686
 20
7.9034788540245584
 10
21.8814802182810304
 20
7.8288710777626198
 10
22.0422919508867565
 20
7.7244201909959074
 10
22.1788881309686232
 20
7.5925136425648034
 10
22.2885402455661676
 20
7.4355388813096859
 10
22.3712482946793969
 20
7.25349590723056
 10
22.4270122783083323
 20
7.0463847203274206
 10
21.9495225102319189
 20
6.9727148703956354
 10
21.9088506139154191
 20
7.1096521145975444
 10
21.8550477489768085
 20
7.2285129604365634
 10
21.7881139154161012
 20
7.3292974079126871
 10
21.7080491132332902
 20
7.4120054570259208
 10
21.6168997271486987
 20
7.476466575716235
 10
21.516712141882671
 20
7.5225102319236017
 10
21.4074863574352001
 20
7.5501364256480219
 10
21.2892223738062789
 20
7.5593451568894956
 10
21.1123806275579788
 20
7.5427182810368354
 10
20.9529331514324717
 20
7.4928376534788548
 10
20.8108799454297397
 20
7.4097032742155529
 10
20.6862210095498007
 20
7.2933151432469314
 10
20.6318639154161012
 20
7.2219687926330156
 10
20.5847544338335595
 20
7.1409447476125516
 10
20.5448925648021792
 20
7.0502430081855394
 10
20.5122783083219709
 20
6.9498635743519781
 10
20.4687926330150098
 20
6.7200716234652109
 10
20.4542974079126907
 20
6.4515688949522509
 10
20.4682810368349202
 20
6.1795702592087309
 10
20.5102319236016406
 20
5.9474761255115967
 10
20.58015006821282
 20
5.7552864938608463
 10
20.6255968622100987
 20
5.6741558663028648
 10
20.6780354706684797
 20
5.60300136425648
 10
20.7984311050477508
 20
5.4872100954979537
 10
20.9358799454297397
 20
5.4045020463847209
 10
21.0903819918144606
 20
5.3548772169167806
 10
21.2619372442019099
 20
5.3383356070941339
 10
21.4005798090040891
 20
5.3494201909959074
 10
21.527285129604369
 20
5.3826739427012278
 10
21.6420532060027284
 20
5.4380968622100951
 10
21.7448840381991815
 20
5.5156889495225103
 10
21.8328785811732615
 20
5.6163028649386089
 10
21.9031377899044983
 20
5.7407912687585263
 10
21.9556616643929097
 20
5.8891541609822644
 10
21.9904502046384707
 20
6.0613915416098223
  0
LWPOLYLINE
  5
64
  8
PortLabels
 62
256
370
-1
  6
CONTINUOUS
100
AcDbEntity
100
AcDbPolyline
 90
76
 70
1
 10
24.8772169167803625
 20
5.9331514324693044
 10
25.3847203274215474
 20
5.8703956343792632
 10
25.3119031377898978
 20
5.6604706684856758
 10
25.2135061391541626
 20
5.4754433833560707
 10
25.0895293315143277
 20
5.3153137789904514
 10
24.9399727148703931
 20
5.1800818553888126
 10
24.7663710777626065
 20
5.0726466575716236
 10
24.5702592087312368
 20
4.9959072305593448
 10
24.3516371077762628
 20
4.9498635743519781
 10
24.1105047748976773
 20
4.9345156889495234
 10
23.9556829809004128
 20
4.9406335266030013
 10
23.8090893587994472
 20
4.9589870395634366
 10
23.6707239085948089
 20
4.989576227830832
 10
23.5405866302864908
 20
5.032401091405184
 10
23.4186775238744929
 20
5.0874616302864926
 10
23.3049965893588009
 20
5.1547578444747604
 10
23.1995438267394292
 20
5.2342897339699856
 10
23.1023192360163705
 20
5.3260572987721693
 10
23.0150281377898978
 20
5.4288668144611192
 10
22.939375852660298
 20
5.5415245566166451
 10
22.8753623806275499
 20
5.6640305252387462
 10
22.8229877216916677
 20
5.7963847203274224
 10
22.7822518758526513
 20
5.9385871418826746
 10
22.7531548431105008
 20
6.0906377899045019
 10
22.7356966234652091
 20
6.2525366643929061
 10
22.7298772169167833
 20
6.4242837653478846
 10
22.7357605729877221
 20
6.6019781718963166
 10
22.7534106412005528
 20
6.7694406548431107
 10
22.7828274215552469
 20
6.9266712141882678
 10
22.8240109140518399
 20
7.0736698499317878
 10
22.8769611186903177
 20
7.2104365620736708
 10
22.9416780354706731
 20
7.3369713506139158
 10
23.0181616643929132
 20
7.4532742155525238
 10
23.1064120054570168
 20
7.5593451568894956
 10
23.2040416098226387
 20
7.6539904502046392
 10
23.3086630286493772
 20
7.7360163710777634
 10
23.4202762619372393
 20
7.8054229195088682
 10
23.5388813096862179
 20
7.8622100954979537
 10
23.6644781718963131
 20
7.9063778990450206
 10
23.7970668485675176
 20
7.9379263301500682
 10
23.93664733969986
 20
7.9568553888130973
 10
24.0832196452933118
 20
7.963165075034107
 10
24.2251875852660277
 20
7.9569832878581179
 10
24.3605047748976773
 20
7.9384379263301508
 10
24.4891712141882678
 20
7.9075289904502064
 10
24.6111869031377921
 20
7.8642564802182813
 10
24.7265518417462502
 20
7.8086203956343789
 10
24.8352660300136421
 20
7.7406207366984994
 10
24.9373294679399677
 20
7.6602575034106417
 10
25.0327421555252414
 20
7.5675306957708051
 10
25.1190740109140478
 20
7.4635914051841743
 10
25.1938949522510285
 20
7.3495907230559343
 10
25.2572049795361622
 20
7.2255286493860842
 10
25.3090040927694417
 20
7.0914051841746248
 10
25.3492922919508885
 20
6.9472203274215554
 10
25.3780695770805025
 20
6.7929740791268758
 10
25.3953359481582623
 20
6.628666439290587
 10
25.4010914051841823
 20
6.4542974079126871
 10
25.3983628922237372
 20
6.3233287858117322
 10
23.2373806275579824
 20
6.3233287858117322
 10
23.2644952251023085
 20
6.0985675306957701
 10
23.3185538881309569
 20
5.9017735334242829
 10
23.3995566166439204
 20
5.7329467939972707
 10
23.507503410641192
 20
5.5920873124147326
 10
23.6364256480218273
 20
5.4810709413369718
 10
23.7803547066848466
 20
5.4017735334242838
 10
23.9392905866302925
 20
5.3541950886766712
 10
24.1132332878581224
 20
5.3383356070941339
 10
24.2433492496589267
 20
5.3472032742155529
 10
24.3635743519781727
 20
5.3738062755798097
 10
24.4739085948158177
 20
5.4181446111869036
 10
24.5743519781718902
 20
5.4802182810368354
 10
24.6649045020463831
 20
5.561732605729877
 10
24.7455661664392892
 20
5.6643929058663023
 10
24.8163369713506228
 20
5.788199181446112
 10
24.8772169167803625
 20
5.9331514324693044
  0
LWPOLYLINE
  5
65
  8
PortLabels
 62
256
370
-1
  6
CONTINUOUS
100
AcDbEntity
100
AcDbPolyline
 90
18
 70
1
 10
23.2646657571623408
 20
6.7271487039563436
 10
24.8826739427012171
 20
6.7271487039563436
 10
24.8587994542973973
 20
6.898533424283765
 10
24.8199181446111794
 20
7.0470668485675301
 10
24.7660300136425633
 20
7.1727489768076396
 10
24.6971350613915419
 20
7.2755798090040926
 10
24.5711118690313768
 20
7.3997271487039562
 10
24.4276944065484329
 20
7.4884038199181449
 10
24.2668826739427033
 20
7.5416098226466577
 10
24.0886766712141878
 20
7.5593451568894956
 10
23.9262448840381978
 20
7.5451909959072312
 10
23.7772851296043726
 20
7.5027285129604371
 10
23.6417974079126765
 20
7.4319577080491133
 10
23.5197817189631593
 20
7.3328785811732606
 10
23.4173772169167833
 20
7.2100954979536152
 10
23.340723055934518
 20
7.0682128240109137
 10
23.2898192360163705
 20
6.9072305593451571
 10
23.2646657571623408
 20
6.7271487039563436
  0
LINE
  5
66
100
AcDbEntity
100
AcDbLine
  8
PortHoles
 62
256
370
-1
  6
CONTINUOUS
 10
10.5
 20
10.5
 30
0.0
 11
23.5
 21
10.5
 31
0.0
  0
LINE
  5
67
100
AcDbEntity
100
AcDbLine
  8
PortHoles
 62
256
370
-1
  6
CONTINUOUS
 10
10.5
 20
10.5
 30
0.0
 11
10.5000000004938592
 21
21.5
 31
0.0
  0
LINE
  5
68
100
AcDbEntity
100
AcDbLine
  8
PortHoles
 62
256
370
-1
  6
CONTINUOUS
 10
23.5
 20
10.5
 30
0.0
 11
23.5000000004938627
 21
21.5
 31
0.0
  0
LINE
  5
69
100
AcDbEntity
100
AcDbLine
  8
PortHoles
 62
256
370
-1
  6
CONTINUOUS
 10
10.5000000004938592
 20
21.5
 30
0.0
 11
23.5000000004938627
 21
21.5
 31
0.0
  0
LINE
  5
6A
100
AcDbEntity
100
AcDbLine
  8
PortHoles
 62
256
370
-1
  6
CONTINUOUS
 10
8.5
 20
26.0
 30
0.0
 11
8.5000000006285497
 21
40.0
 31
0.0
  0
LINE
  5
6B
100
AcDbEntity
100
AcDbLine
  8
PortHoles
 62
256
370
-1
  6
CONTINUOUS
 10
8.5
 20
26.0
 30
0.0
 11
25.0
 21
26.0
 31
0.0
  0
LINE
  5
6C
100
AcDbEntity
100
AcDbLine
  8
PortHoles
 62
256
370
-1
  6
CONTINUOUS
 10
8.5000000006285497
 20
40.0
 30
0.0
 11
25.0000000006285532
 21
40.0
 31
0.0
  0
LINE
  5
6D
100
AcDbEntity
100
AcDbLine
  8
PortHoles
 62
256
370
-1
  6
CONTINUOUS
 10
25.0000000006285532
 20
40.0
 30
0.0
 11
25.0
 21
26.0
 31
0.0
  0
LINE
  5
6E
100
AcDbEntity
100
AcDbLine
  8
PortHoles
 62
256
370
-1
  6
CONTINUOUS
 10
42.0
 20
10.5
 30
0.0
 11
51.0
 21
10.5
 31
0.0
  0
LINE
  5
6F
100
AcDbEntity
100
AcDbLine
  8
PortHoles
 62
256
370
-1
  6
CONTINUOUS
 10
42.0
 20
10.5
 30
0.0
 11
42.0000000004938627
 21
21.5
 31
0.0
  0
LINE
  5
70
100
AcDbEntity
100
AcDbLine
  8
PortHoles
 62
256
370
-1
  6
CONTINUOUS
 10
51.0
 20
10.5
 30
0.0
 11
51.0000000004938627
 21
21.5
 31
0.0
  0
LINE
  5
71
100
AcDbEntity
100
AcDbLine
  8
PortHoles
 62
256
370
-1
  6
CONTINUOUS
 10
42.0000000004938627
 20
21.5
 30
0.0
 11
51.0000000004938627
 21
21.5
 31
0.0
  0
ENDSEC
  0
SECTION
  2
OBJECTS
  0
DICTIONARY
  5
C
100
AcDbDictionary
280
0
281
1
  3
ACAD_GROUP
350
D
  3
ACAD_LAYOUT
350
1A
  3
ACAD_MLINESTYLE
350
17
  3
ACAD_PLOTSETTINGS
350
19
  3
ACAD_PLOTSTYLENAME
350
E
  3
AcDbVariableDictionary
350
72
  0
DICTIONARY
  5
D
100
AcDbDictionary
280
0
281
1
  0
ACDBDICTIONARYWDFLT
  5
E
100
AcDbDictionary
281
1
  3
Normal
350
F
100
AcDbDictionaryWithDefault
340
F
  0
ACDBPLACEHOLDER
  5
F
  0
DICTIONARY
  5
17
100
AcDbDictionary
280
0
281
1
  3
Standard
350
18
  0
MLINESTYLE
  5
18
100
AcDbMlineStyle
  2
STANDARD
 70
0
  3

 62
256
 51
90.0
 52
90.0
 71
2
 49
0.5
 62
256
  6
BYLAYER
 49
-0.5
 62
256
  6
BYLAYER
  0
DICTIONARY
  5
19
100
AcDbDictionary
280
0
281
1
  0
DICTIONARY
  5
1A
100
AcDbDictionary
281
1
  3
Layout1
350
1E
  3
Layout2
350
26
  3
Model
350
22
  0
LAYOUT
  5
1E
100
AcDbPlotSettings
  1

  2
C:\Program Files\AutoCAD 2002\plotters\DWF ePlot (optimized for plotting).pc3
  4

  6

 40
0.0
 41
0.0
 42
0.0
 43
0.0
 44
0.0
 45
0.0
 46
0.0
 47
0.0
 48
0.0
 49
0.0
140
0.0
141
0.0
142
1.0
143
1.0
 70
688
 72
0
 73
0
 74
5
  7

 75
16
147
1.0
148
0.0
149
0.0
100
AcDbLayout
  1
Layout1
 70
1
 71
1
 10
0.0
 20
0.0
 11
420.0
 21
297.0
 12
0.0
 22
0.0
 32
0.0
 14
100000000000000000000.0
 24
100000000000000000000.0
 34
100000000000000000000.0
 15
-100000000000000000000.0
 25
-100000000000000000000.0
 35
-100000000000000000000.0
146
0.0
 13
0.0
 23
0.0
 33
0.0
 16
1.0
 26
0.0
 36
0.0
 17
0.0
 27
1.0
 37
0.0
 76
0
330
1B
  0
LAYOUT
  5
22
100
AcDbPlotSettings
  1

  2
C:\Program Files\AutoCAD 2002\plotters\DWF ePlot (optimized for plotting).pc3
  4

  6

 40
0.0
 41
0.0
 42
0.0
 43
0.0
 44
0.0
 45
0.0
 46
0.0
 47
0.0
 48
0.0
 49
0.0
140
0.0
141
0.0
142
1.0
143
1.0
 70
1712
 72
0
 73
0
 74
0
  7

 75
0
147
1.0
148
0.0
149
0.0
100
AcDbLayout
  1
Model
 70
1
 71
0
 10
0.0
 20
0.0
 11
12.0
 21
9.0
 12
0.0
 22
0.0
 32
0.0
 14
0.0
 24
0.0
 34
0.0
 15
0.0
 25
0.0
 35
0.0
146
0.0
 13
0.0
 23
0.0
 33
0.0
 16
1.0
 26
0.0
 36
0.0
 17
0.0
 27
1.0
 37
0.0
 76
0
330
1F
  0
LAYOUT
  5
26
100
AcDbPlotSettings
  1

  2
C:\Program Files\AutoCAD 2002\plotters\DWF ePlot (optimized for plotting).pc3
  4

  6

 40
0.0
 41
0.0
 42
0.0
 43
0.0
 44
0.0
 45
0.0
 46
0.0
 47
0.0
 48
0.0
 49
0.0
140
0.0
141
0.0
142
1.0
143
1.0
 70
688
 72
0
 73
0
 74
5
  7

 75
16
147
1.0
148
0.0
149
0.0
100
AcDbLayout
  1
Layout2
 70
1
 71
2
 10
0.0
 20
0.0
 11
12.0
 21
9.0
 12
0.0
 22
0.0
 32
0.0
 14
0.0
 24
0.0
 34
0.0
 15
0.0
 25
0.0
 35
0.0
146
0.0
 13
0.0
 23
0.0
 33
0.0
 16
1.0
 26
0.0
 36
0.0
 17
0.0
 27
1.0
 37
0.0
 76
0
330
23
  0
DICTIONARY
  5
72
100
AcDbDictionary
281
1
  3
DIMASSOC
350
74
  3
HIDETEXT
350
73
  0
DICTIONARYVAR
  5
73
100
DictionaryVariables
280
0
  1
2
  0
DICTIONARYVAR
  5
74
100
DictionaryVariables
280
0
  1
1
  0
ENDSEC
  0
EOF
