999
dxflib 2.2.0.0
  0
SECTION
  2
HEADER
  9
$ACADVER
  1
AC1015
  9
$HANDSEED
  5
FFFF
  9
$DIMLIM
 70
0
  9
$DIMTIX
 70
0
  9
$AUNITS
 70
0
  9
$QTEXTMODE
 70
0
  9
$COORDS
 70
1
  9
$USERR1
 40
0.0
  9
$DIMALTU
 70
2
  9
$USERR2
 40
0.0
  9
$USERR3
 40
0.0
  9
$USERR4
 40
0.0
  9
$USERR5
 40
0.0
  9
$LIMMAX
 10
60.0
 20
50.0
  9
$PELEVATION
 40
0.0
  9
$DIMALTZ
 70
0
  9
$DIMFIT
 70
5
  9
$TILEMODE
 70
1
  9
$PEXTMIN
 10
100000000000000000000.0
 20
100000000000000000000.0
 30
100000000000000000000.0
  9
$TDUSRTIMER
 40
2456822.8006944442167878
  9
$DWGCODEPAGE
  3
ansi_1252
  9
$DIMUNIT
 70
2
  9
$DIMSOXD
 70
0
  9
$DIMTZIN
 70
0
  9
$SPLINETYPE
 70
6
  9
$DIMLFAC
 40
1.0
  9
$DIMSE1
 70
0
  9
$FILLETRAD
 40
0.5
  9
$DIMSE2
 70
0
  9
$TEXTSTYLE
  7
STANDARD
  9
$DIMTSZ
 40
0.0
  9
$PUCSXDIR
 10
1.0
 20
0.0
 30
0.0
  9
$DIMTXSTY
  7
STANDARD
  9
$PLIMMAX
 10
0.0
 20
0.0
  9
$DIMTM
 40
0.0
  9
$UCSORG
 10
0.0
 20
0.0
 30
0.0
  9
$DIMTP
 40
0.0
  9
$PSLTSCALE
 70
1
  9
$ANGBASE
 50
0.0
  9
$PUCSYDIR
 10
0.0
 20
1.0
 30
0.0
  9
$DIMASZ
 40
0.18
  9
$UNITMODE
 70
0
  9
$INSBASE
 10
0.0
 20
0.0
 30
0.0
  9
$EXTMAX
 10
54.1459754433833567
 20
40.0163710777626207
 30
0.0
  9
$ELEVATION
 40
0.0
  9
$TDCREATE
 40
2456822.8005555560812354
  9
$DIMDEC
 70
4
  9
$CELTYPE
  6
BYBLOCK
  9
$MENU
  1
.
  9
$ANGDIR
 70
0
  9
$DIMALTTD
 70
2
  9
$TREEDEPTH
 70
3020
  9
$LTSCALE
 40
10.0
  9
$TDUPDATE
 40
2456822.8007870367728174
  9
$DIMTOLJ
 70
1
  9
$DIMCEN
 40
0.09
  9
$DIMTVP
 40
0.0
  9
$TRACEWID
 40
0.05
  9
$CMLSTYLE
  2
STANDARD
  9
$DISPSILH
 70
0
  9
$DIMSTYLE
  2
STANDARD
  9
$SKETCHINC
 40
0.1
  9
$FILLMODE
 70
1
  9
$PLINEGEN
 70
0
  9
$THICKNESS
 40
0.0
  9
$PUCSORG
 10
0.0
 20
0.0
 30
0.0
  9
$CELTSCALE
 40
1.0
  9
$DIMALTTZ
 70
0
  9
$INSUNITS
 70
4
  9
$PLINEWID
 40
0.0
  9
$PEXTMAX
 10
-100000000000000000000.0
 20
-100000000000000000000.0
 30
-100000000000000000000.0
  9
$DIMJUST
 70
0
  9
$UCSYDIR
 10
0.0
 20
1.0
 30
0.0
  9
$PDSIZE
 40
0.0
  9
$ATTDIA
 70
0
  9
$HANDLING
 70
1
  9
$DIMUPT
 70
0
  9
$DIMTAD
 70
0
  9
$MAXACTVP
 70
64
  9
$UCSXDIR
 10
1.0
 20
0.0
 30
0.0
  9
$DIMSAH
 70
0
  9
$USERI1
 70
0
  9
$USERI2
 70
0
  9
$USERI3
 70
0
  9
$SKPOLY
 70
0
  9
$USERI4
 70
0
  9
$USERI5
 70
0
  9
$LIMMIN
 10
0.0
 20
0.0
  9
$MIRRTEXT
 70
1
  9
$TEXTSIZE
 40
0.2
  9
$DRAGMODE
 70
2
  9
$DIMGAP
 40
0.09
  9
$LUPREC
 70
4
  9
$CECOLOR
 62
256
  9
$DIMSD1
 70
0
  9
$DIMSD2
 70
0
  9
$WORLDVIEW
 70
1
  9
$DELOBJ
 70
1
  9
$PLIMCHECK
 70
0
  9
$DIMTFAC
 40
1.0
  9
$CMLJUST
 70
0
  9
$USRTIMER
 70
1
  9
$SURFU
 70
6
  9
$SURFV
 70
6
  9
$ATTREQ
 70
1
  9
$DIMASO
 70
1
  9
$DIMDLE
 40
0.0
  9
$EXTMIN
 10
6.0
 20
17.2032742155525185
 30
0.0
  9
$DIMDLI
 40
0.38
  9
$LUNITS
 70
2
  9
$DIMCLRD
 70
0
  9
$SHADEDIF
 70
70
  9
$DIMCLRE
 70
0
  9
$SPLINESEGS
 70
8
  9
$DIMRND
 40
0.0
  9
$DIMALT
 70
0
  9
$DIMCLRT
 70
0
  9
$DIMTOH
 70
1
  9
$VISRETAIN
 70
1
  9
$SAVEIMAGES
 70
1
  9
$SHADEDGE
 70
3
  9
$DIMTOL
 70
0
  9
$SURFTYPE
 70
6
  9
$CHAMFERA
 40
10.0
  9
$SURFTAB1
 70
6
  9
$CHAMFERB
 40
10.0
  9
$SURFTAB2
 70
6
  9
$CHAMFERC
 40
0.0
  9
$AUPREC
 70
0
  9
$CHAMFERD
 40
0.0
  9
$DIMTDEC
 70
4
  9
$OSMODE
 70
511
  9
$PDMODE
 70
0
  9
$PLIMMIN
 10
0.0
 20
0.0
  9
$SPLFRAME
 70
0
  9
$LIMCHECK
 70
0
  9
$PINSBASE
 10
0.0
 20
0.0
 30
0.0
  9
$ORTHOMODE
 70
0
  9
$CLAYER
  8
LAYER_1
  9
$DIMSHO
 70
1
  9
$DIMTOFL
 70
0
  9
$DIMTXT
 40
0.18
  9
$DIMEXE
 40
0.18
  9
$TDINDWG
 40
0.0000000116
  9
$REGENMODE
 70
1
  9
$ATTMODE
 70
1
  9
$PICKSTYLE
 70
1
  9
$CMLSCALE
 40
1.0
  9
$DIMTIH
 70
1
  9
$DIMZIN
 70
0
  9
$DIMSCALE
 40
1.0
  9
$DIMALTD
 70
2
  9
$DIMAUNIT
 70
0
  9
$DIMEXO
 40
0.0625
  9
$DIMALTF
 40
25.3999999999999986
  0
ENDSEC
  0
SECTION
  2
TABLES
  0
TABLE
  2
VPORT
  5
8
100
AcDbSymbolTable
 70
1
  0
VPORT
  5
30
100
AcDbSymbolTableRecord
100
AcDbViewportTableRecord
  2
*Active
 70
0
 10
0.0
 20
0.0
 11
1.0
 21
1.0
 12
286.3055555555554861
 22
148.5
 13
0.0
 23
0.0
 14
10.0
 24
10.0
 15
10.0
 25
10.0
 16
0.0
 26
0.0
 36
1.0
 17
0.0
 27
0.0
 37
0.0
 40
297.0
 41
1.92798353909465
 42
50.0
 43
0.0
 44
0.0
 50
0.0
 51
0.0
 71
0
 72
100
 73
1
 74
3
 75
1
 76
1
 77
0
 78
0
281
0
 65
1
110
0.0
120
0.0
130
0.0
111
1.0
121
0.0
131
0.0
112
0.0
122
1.0
132
0.0
 79
0
146
0.0
  0
ENDTAB
  0
TABLE
  2
LTYPE
  5
5
100
AcDbSymbolTable
 70
21
  0
LTYPE
  5
14
100
AcDbSymbolTableRecord
100
AcDbLinetypeTableRecord
  2
ByBlock
 70
0
  3

 72
65
 73
0
 40
0.0
  0
LTYPE
  5
15
100
AcDbSymbolTableRecord
100
AcDbLinetypeTableRecord
  2
ByLayer
 70
0
  3

 72
65
 73
0
 40
0.0
  0
LTYPE
  5
16
100
AcDbSymbolTableRecord
100
AcDbLinetypeTableRecord
  2
CONTINUOUS
 70
0
  3
Solid line
 72
65
 73
0
 40
0.0
  0
LTYPE
  5
31
100
AcDbSymbolTableRecord
100
AcDbLinetypeTableRecord
  2
DOT
 70
0
  3
Dot . . . . . . . . . . . . . . . . . . . . . .
 72
65
 73
2
 40
6.3499999999999996
 49
0.0
 74
0
 49
-6.3499999999999996
 74
0
  0
LTYPE
  5
32
100
AcDbSymbolTableRecord
100
AcDbLinetypeTableRecord
  2
DOT2
 70
0
  3
Dot (.5x) .....................................
 72
65
 73
2
 40
3.1749999999999998
 49
0.0
 74
0
 49
-3.1749999999999998
 74
0
  0
LTYPE
  5
33
100
AcDbSymbolTableRecord
100
AcDbLinetypeTableRecord
  2
DOTX2
 70
0
  3
Dot (2x) .  .  .  .  .  .  .  .  .  .  .  .  .
 72
65
 73
2
 40
12.6999999999999993
 49
0.0
 74
0
 49
-12.6999999999999993
 74
0
  0
LTYPE
  5
34
100
AcDbSymbolTableRecord
100
AcDbLinetypeTableRecord
  2
DASHED
 70
0
  3
Dashed __ __ __ __ __ __ __ __ __ __ __ __ __ _
 72
65
 73
2
 40
19.0500000000000007
 49
12.6999999999999993
 74
0
 49
-6.3499999999999996
 74
0
  0
LTYPE
  5
35
100
AcDbSymbolTableRecord
100
AcDbLinetypeTableRecord
  2
DASHED2
 70
0
  3
Dashed (.5x) _ _ _ _ _ _ _ _ _ _ _ _ _ _ _ _ _
 72
65
 73
2
 40
9.5250000000000004
 49
6.3499999999999996
 74
0
 49
-3.1749999999999998
 74
0
  0
LTYPE
  5
36
100
AcDbSymbolTableRecord
100
AcDbLinetypeTableRecord
  2
DASHEDX2
 70
0
  3
Dashed (2x) ____  ____  ____  ____  ____  ___
 72
65
 73
2
 40
38.1000000000000014
 49
25.3999999999999986
 74
0
 49
-12.6999999999999993
 74
0
  0
LTYPE
  5
37
100
AcDbSymbolTableRecord
100
AcDbLinetypeTableRecord
  2
DASHDOT
 70
0
  3
Dash dot __ . __ . __ . __ . __ . __ . __ . __
 72
65
 73
4
 40
25.3999999999999986
 49
12.6999999999999993
 74
0
 49
-6.3499999999999996
 74
0
 49
0.0
 74
0
 49
-6.3499999999999996
 74
0
  0
LTYPE
  5
38
100
AcDbSymbolTableRecord
100
AcDbLinetypeTableRecord
  2
DASHDOT2
 70
0
  3
Dash dot (.5x) _._._._._._._._._._._._._._._.
 72
65
 73
4
 40
12.6999999999999993
 49
6.3499999999999996
 74
0
 49
-3.1749999999999998
 74
0
 49
0.0
 74
0
 49
-3.1749999999999998
 74
0
  0
LTYPE
  5
39
100
AcDbSymbolTableRecord
100
AcDbLinetypeTableRecord
  2
DASHDOTX2
 70
0
  3
Dash dot (2x) ____  .  ____  .  ____  .  ___
 72
65
 73
4
 40
50.7999999999999972
 49
25.3999999999999986
 74
0
 49
-12.6999999999999993
 74
0
 49
0.0
 74
0
 49
-12.6999999999999993
 74
0
  0
LTYPE
  5
3A
100
AcDbSymbolTableRecord
100
AcDbLinetypeTableRecord
  2
DIVIDE
 70
0
  3
Divide ____ . . ____ . . ____ . . ____ . . ____
 72
65
 73
6
 40
31.75
 49
12.6999999999999993
 74
0
 49
-6.3499999999999996
 74
0
 49
0.0
 74
0
 49
-6.3499999999999996
 74
0
 49
0.0
 74
0
 49
-6.3499999999999996
 74
0
  0
LTYPE
  5
3B
100
AcDbSymbolTableRecord
100
AcDbLinetypeTableRecord
  2
DIVIDE2
 70
0
  3
Divide (.5x) __..__..__..__..__..__..__..__.._
 72
65
 73
6
 40
15.875
 49
6.3499999999999996
 74
0
 49
-3.1749999999999998
 74
0
 49
0.0
 74
0
 49
-3.1749999999999998
 74
0
 49
0.0
 74
0
 49
-3.1749999999999998
 74
0
  0
LTYPE
  5
3C
100
AcDbSymbolTableRecord
100
AcDbLinetypeTableRecord
  2
DIVIDEX2
 70
0
  3
Divide (2x) ________  .  .  ________  .  .  _
 72
65
 73
6
 40
63.5
 49
25.3999999999999986
 74
0
 49
-12.6999999999999993
 74
0
 49
0.0
 74
0
 49
-12.6999999999999993
 74
0
 49
0.0
 74
0
 49
-12.6999999999999993
 74
0
  0
LTYPE
  5
3D
100
AcDbSymbolTableRecord
100
AcDbLinetypeTableRecord
  2
CENTER
 70
0
  3
Center ____ _ ____ _ ____ _ ____ _ ____ _ ____
 72
65
 73
4
 40
50.7999999999999972
 49
31.75
 74
0
 49
-6.3499999999999996
 74
0
 49
6.3499999999999996
 74
0
 49
-6.3499999999999996
 74
0
  0
LTYPE
  5
3E
100
AcDbSymbolTableRecord
100
AcDbLinetypeTableRecord
  2
CENTER2
 70
0
  3
Center (.5x) ___ _ ___ _ ___ _ ___ _ ___ _ ___
 72
65
 73
4
 40
28.5749999999999993
 49
19.0500000000000007
 74
0
 49
-3.1749999999999998
 74
0
 49
3.1749999999999998
 74
0
 49
-3.1749999999999998
 74
0
  0
LTYPE
  5
3F
100
AcDbSymbolTableRecord
100
AcDbLinetypeTableRecord
  2
CENTERX2
 70
0
  3
Center (2x) ________  __  ________  __  _____
 72
65
 73
4
 40
101.5999999999999943
 49
63.5
 74
0
 49
-12.6999999999999993
 74
0
 49
12.6999999999999993
 74
0
 49
-12.6999999999999993
 74
0
  0
LTYPE
  5
40
100
AcDbSymbolTableRecord
100
AcDbLinetypeTableRecord
  2
BORDER
 70
0
  3
Border __ __ . __ __ . __ __ . __ __ . __ __ .
 72
65
 73
6
 40
44.4500000000000028
 49
12.6999999999999993
 74
0
 49
-6.3499999999999996
 74
0
 49
12.6999999999999993
 74
0
 49
-6.3499999999999996
 74
0
 49
0.0
 74
0
 49
-6.3499999999999996
 74
0
  0
LTYPE
  5
41
100
AcDbSymbolTableRecord
100
AcDbLinetypeTableRecord
  2
BORDER2
 70
0
  3
Border (.5x) __.__.__.__.__.__.__.__.__.__.__.
 72
65
 73
6
 40
22.2250000000000014
 49
6.3499999999999996
 74
0
 49
-3.1749999999999998
 74
0
 49
6.3499999999999996
 74
0
 49
-3.1749999999999998
 74
0
 49
0.0
 74
0
 49
-3.1749999999999998
 74
0
  0
LTYPE
  5
42
100
AcDbSymbolTableRecord
100
AcDbLinetypeTableRecord
  2
BORDERX2
 70
0
  3
Border (2x) ____  ____  .  ____  ____  .  ___
 72
65
 73
6
 40
88.9000000000000057
 49
25.3999999999999986
 74
0
 49
-12.6999999999999993
 74
0
 49
25.3999999999999986
 74
0
 49
-12.6999999999999993
 74
0
 49
0.0
 74
0
 49
-12.6999999999999993
 74
0
  0
ENDTAB
  0
TABLE
  2
LAYER
  5
2
100
AcDbSymbolTable
 70
3
  0
LAYER
  5
10
100
AcDbSymbolTableRecord
100
AcDbLayerTableRecord
  2
0
 70
0
 62
7
  6
CONTINUOUS
390
F
  0
LAYER
  5
43
100
AcDbSymbolTableRecord
100
AcDbLayerTableRecord
  2
CableHole
 70
0
 62
1
  6
CONTINUOUS
370
0
390
F
  0
LAYER
  5
44
100
AcDbSymbolTableRecord
100
AcDbLayerTableRecord
  2
Text
 70
0
 62
7
  6
CONTINUOUS
370
0
390
F
  0
ENDTAB
  0
TABLE
  2
STYLE
  5
3
100
AcDbSymbolTable
 70
1
  0
STYLE
  5
11
100
AcDbSymbolTableRecord
100
AcDbTextStyleTableRecord
  2
Standard
 70
0
 40
0.0
 41
0.75
 50
0.0
 71
0
 42
2.5
  3
txt
  4

  0
ENDTAB
  0
TABLE
  2
VIEW
  5
6
100
AcDbSymbolTable
 70
0
  0
ENDTAB
  0
TABLE
  2
UCS
  5
7
100
AcDbSymbolTable
 70
0
  0
ENDTAB
  0
TABLE
  2
APPID
  5
9
100
AcDbSymbolTable
 70
1
  0
APPID
  5
12
100
AcDbSymbolTableRecord
100
AcDbRegAppTableRecord
  2
ACAD
 70
0
  0
ENDTAB
  0
TABLE
  2
DIMSTYLE
  5
A
100
AcDbSymbolTable
 70
1
100
AcDbDimStyleTable
 71
0
  0
DIMSTYLE
105
27
100
AcDbSymbolTableRecord
100
AcDbDimStyleTableRecord
  2
Standard
 41
0.18
 42
0.0625
 43
3.75
 44
0.18
 70
0
 73
0
 74
0
 77
1
 78
8
140
0.18
141
2.5
143
0.03937007874016
147
0.09
171
3
172
1
271
2
272
2
274
3
278
44
283
0
284
8
340
11
  0
ENDTAB
  0
TABLE
  2
BLOCK_RECORD
  5
1
100
AcDbSymbolTable
 70
1
  0
BLOCK_RECORD
  5
1F
100
AcDbSymbolTableRecord
100
AcDbBlockTableRecord
  2
*Model_Space
340
22
  0
BLOCK_RECORD
  5
1B
100
AcDbSymbolTableRecord
100
AcDbBlockTableRecord
  2
*Paper_Space
340
1E
  0
BLOCK_RECORD
  5
23
100
AcDbSymbolTableRecord
100
AcDbBlockTableRecord
  2
*Paper_Space0
340
26
  0
ENDTAB
  0
ENDSEC
  0
SECTION
  2
BLOCKS
  0
BLOCK
  5
20
100
AcDbEntity
  8
0
100
AcDbBlockBegin
  2
*Model_Space
 70
0
 10
0.0
 20
0.0
 30
0.0
  3
*Model_Space
  1

  0
ENDBLK
  5
21
100
AcDbEntity
  8
0
100
AcDbBlockEnd
  0
BLOCK
  5
1C
100
AcDbEntity
 67
1
  8
0
100
AcDbBlockBegin
  2
*Paper_Space
 70
0
 10
0.0
 20
0.0
 30
0.0
  3
*Paper_Space
  1

  0
ENDBLK
  5
1D
100
AcDbEntity
 67
1
  8
0
100
AcDbBlockEnd
  0
BLOCK
  5
24
100
AcDbEntity
  8
0
100
AcDbBlockBegin
  2
*Paper_Space0
 70
0
 10
0.0
 20
0.0
 30
0.0
  3
*Paper_Space0
  1

  0
ENDBLK
  5
25
100
AcDbEntity
  8
0
100
AcDbBlockEnd
  0
ENDSEC
  0
SECTION
  2
ENTITIES
  0
LWPOLYLINE
  5
45
  8
Text
 62
256
370
-1
  6
CONTINUOUS
100
AcDbEntity
100
AcDbPolyline
 90
13
 70
1
 10
35.3997271487039598
 20
20.6466575716234573
 10
35.3997271487039598
 20
21.7435197817189731
 10
34.3110504774897578
 20
21.7435197817189731
 10
34.3110504774897578
 20
22.201909959072303
 10
35.3997271487039598
 20
22.201909959072303
 10
35.3997271487039598
 20
23.2905866302864908
 10
35.8635743519781727
 20
23.2905866302864908
 10
35.8635743519781727
 20
22.201909959072303
 10
36.9522510231923604
 20
22.201909959072303
 10
36.9522510231923604
 20
21.7435197817189731
 10
35.8635743519781727
 20
21.7435197817189731
 10
35.8635743519781727
 20
20.6466575716234573
 10
35.3997271487039598
 20
20.6466575716234573
  0
LWPOLYLINE
  5
46
  8
Text
 62
256
370
-1
  6
CONTINUOUS
100
AcDbEntity
100
AcDbPolyline
 90
18
 70
1
 10
39.3451568894952217
 20
20.0
 10
38.8540245566166433
 20
20.0
 10
38.8540245566166433
 20
23.1296043656207431
 10
38.6490450204638378
 20
22.9604365620736672
 10
38.3888130968622079
 20
22.7912687585265985
 10
38.1156207366985029
 20
22.6432469304229187
 10
37.8717598908594795
 20
22.5375170532060025
 10
37.8717598908594795
 20
23.0122783083219673
 10
38.0712824010913877
 20
23.1142564802182875
 10
38.2578444747612494
 20
23.2264665757162376
 10
38.4314461118690289
 20
23.3489085948158177
 10
38.5920873124147334
 20
23.4815825375170633
 10
38.7349931787176018
 20
23.6183492496589267
 10
38.8553888130968588
 20
23.7530695770805025
 10
38.9532742155525327
 20
23.8857435197817267
 10
39.0286493860845809
 20
24.0163710777626207
 10
39.3451568894952217
 20
24.0163710777626207
 10
39.3451568894952217
 20
20.0
  0
LWPOLYLINE
  5
47
  8
Text
 62
256
370
-1
  6
CONTINUOUS
100
AcDbEntity
100
AcDbPolyline
 90
83
 70
1
 10
43.1841746248294669
 20
20.4720327421555268
 10
43.1841746248294669
 20
20.0
 10
40.5402455661664405
 20
20.0
 10
40.551841746248293
 20
20.1739427012278298
 10
40.5975443383356094
 20
20.3410641200545683
 10
40.6556105047748986
 20
20.4756139154160977
 10
40.7288540245566111
 20
20.6091405184174619
 10
40.8172748976807611
 20
20.741643929058668
 10
40.9208731241473274
 20
20.873124147339702
 10
41.0444236016371065
 20
21.0092087312414719
 10
41.1927012278308311
 20
21.1555252387448931
 10
41.5634379263301525
 20
21.4788540245566182
 10
41.8630627557980972
 20
21.7323499317871836
 10
42.1098226466575696
 20
21.9580491132332867
 10
42.303717598908591
 20
22.1559515688949489
 10
42.4447476125511471
 20
22.3260572987721702
 10
42.5450204638471874
 20
22.4801330150068281
 10
42.6166439290586609
 20
22.6299454297407934
 10
42.6596180081855394
 20
22.7754945429740872
 10
42.6739427012278298
 20
22.9167803547066882
 10
42.6608969986357422
 20
23.057042974079117
 10
42.6217598908594795
 20
23.1858799454297397
 10
42.5565313778990415
 20
23.3032912687585281
 10
42.4652114597544283
 20
23.409276944065482
 10
42.3529160982264585
 20
23.4970156889495172
 10
42.2247612551159577
 20
23.5596862210095424
 10
42.0807469304229187
 20
23.5972885402455574
 10
41.9208731241473416
 20
23.6098226466575696
 10
41.7523874488403806
 20
23.5965211459754372
 10
41.6016371077762628
 20
23.5566166439290612
 10
41.4686221009549811
 20
23.4901091405184133
 10
41.3533424283765427
 20
23.3969986357435076
 10
41.2600613915415977
 20
23.2803547066848466
 10
41.1930422919508814
 20
23.1432469304229187
 10
41.1522851296043726
 20
22.9856753069577024
 10
41.1377899045020428
 20
22.8076398362892192
 10
40.6330150068212816
 20
22.8594815825375193
 10
40.6504519099590667
 20
22.9964827762619421
 10
40.6768417462483001
 20
23.1250852660300197
 10
40.7121845156889535
 20
23.2452890518417519
 10
40.7564802182810269
 20
23.3570941336971387
 10
40.8097288540245628
 20
23.4605005115961802
 10
40.8719304229194975
 20
23.5555081855388835
 10
40.9430849249658877
 20
23.6421171555252414
 10
41.0231923601636979
 20
23.7203274215552469
 10
41.1114000682128164
 20
23.7897126534788583
 10
41.2068553888131035
 20
23.8498465211459774
 10
41.3095583219645306
 20
23.9007290245566182
 10
41.419508867667119
 20
23.9423601637107666
 10
41.536707025920883
 20
23.9747399386084581
 10
41.6611527967257871
 20
23.9978683492496572
 10
41.9317871759890934
 20
24.0163710777626207
 10
42.0719645293315097
 20
24.0113830150068281
 10
42.204638472032741
 20
23.9964188267394292
 10
42.3298090040927733
 20
23.9714785129604309
 10
42.4474761255115922
 20
23.9365620736698475
 10
42.5576398362892334
 20
23.8916695088676576
 10
42.6603001364256471
 20
23.8368008185538898
 10
42.755457025920883
 20
23.7719560027285226
 10
42.8431105047748986
 20
23.6971350613915419
 10
42.9217684174624878
 20
23.6149386084583881
 10
42.9899386084583881
 20
23.5279672578444732
 10
43.0476210777626065
 20
23.4362210095497971
 10
43.0948158253751572
 20
23.3396998635743529
 10
43.1315228512960402
 20
23.2384038199181475
 10
43.1577421555252272
 20
23.1323328785811668
 10
43.1734737380627465
 20
23.0214870395634392
 10
43.178717598908591
 20
22.9058663028649434
 10
43.1725784447476073
 20
22.7863233287858122
 10
43.1541609822646635
 20
22.6678035470668533
 10
43.1234652114597594
 20
22.5503069577080524
 10
43.080491132332881
 20
22.4338335607094166
 10
43.0232776261937317
 20
22.3163369713506228
 10
42.9498635743519799
 20
22.1957708049113265
 10
42.8602489768076396
 20
22.072135061391549
 10
42.7544338335607108
 20
21.9454297407912691
 10
42.4512278308322024
 20
21.6412005457025884
 10
41.997271487039562
 20
21.2414733969986429
 10
41.6343792633014971
 20
20.9300818553888135
 10
41.4297407912687632
 20
20.7380627557980901
 10
41.3151432469304183
 20
20.6053888130968588
 10
41.2223738062755771
 20
20.4720327421555268
 10
43.1841746248294669
 20
20.4720327421555268
  0
LWPOLYLINE
  5
48
  8
Text
 62
256
370
-1
  6
CONTINUOUS
100
AcDbEntity
100
AcDbPolyline
 90
12
 70
1
 10
45.0532060027285226
 20
20.0
 10
43.5034106412005528
 20
24.0
 10
44.0763983628922276
 20
24.0
 10
45.1159618008185532
 20
21.0941336971350566
 10
45.2312414733969987
 20
20.7557980900409333
 10
45.3260572987721702
 20
20.4392905866302925
 10
45.4263301500682104
 20
20.7667121418826781
 10
45.541609822646663
 20
21.0941336971350566
 10
46.6221009549795369
 20
24.0
 10
47.1623465211459774
 20
24.0
 10
45.5961800818553868
 20
20.0
 10
45.0532060027285226
 20
20.0
  0
LWPOLYLINE
  5
49
  8
Text
 62
256
370
-1
  6
CONTINUOUS
100
AcDbEntity
100
AcDbPolyline
 90
47
 70
1
 10
34.409276944065482
 20
13.7571623465211488
 10
34.409276944065482
 20
17.7571623465211417
 10
35.9099590723055968
 20
17.7571623465211417
 10
36.1278137789904505
 20
17.7495736698499229
 10
36.3229877216916677
 20
17.7268076398362808
 10
36.4954809004092766
 20
17.6888642564802225
 10
36.6452933151432489
 20
17.6357435197817125
 10
36.7762619372442003
 20
17.5668485675306982
 10
36.8922237380627465
 20
17.4815825375170633
 10
36.9931787175989086
 20
17.3799454297407934
 10
37.0791268758526584
 20
17.2619372442019099
 10
37.1477660300136421
 20
17.1342939972714774
 10
37.1967939972714774
 20
17.0037517053206031
 10
37.2262107776261928
 20
16.8703103683492515
 10
37.2360163710777599
 20
16.7339699863574367
 10
37.2273192360163705
 20
16.6076057298772213
 10
37.2012278308322024
 20
16.4849931787176018
 10
37.1577421555252272
 20
16.3661323328785926
 10
37.0968622100954875
 20
16.2510231923601722
 10
37.0184174624829367
 20
16.1432469304229187
 10
36.922237380627557
 20
16.046384720327417
 10
36.8083219645293269
 20
15.9604365620736708
 10
36.6766712141882678
 20
15.8854024556616586
 10
36.847629604365622
 20
15.8228171896316496
 10
36.9976125511596194
 20
15.7414733969986393
 10
37.1266200545702674
 20
15.6413710777626207
 10
37.2346521145975373
 20
15.5225102319236008
 10
37.320003410641192
 20
15.3884720327421611
 10
37.3809686221009514
 20
15.2428376534788512
 10
37.4175477489768014
 20
15.0856070941336995
 10
37.4297407912687632
 20
14.9167803547066811
 10
37.4223226466575696
 20
14.7787346521146006
 10
37.4000682128240101
 20
14.6456343792632993
 10
37.3629774897680775
 20
14.5174795361527913
 10
37.311050477489772
 20
14.3942701227830803
 10
37.2482094133697217
 20
14.2804399727148699
 10
37.1783765347885478
 20
14.1804229195088709
 10
37.1015518417462573
 20
14.0942189631650798
 10
37.0177353342428432
 20
14.0218281036834895
 10
36.9248806275579824
 20
13.9603512960436511
 10
36.8209413369713516
 20
13.9068894952251014
 10
36.7059174624829367
 20
13.8614427012278298
 10
36.5798090040927733
 20
13.8240109140518399
 10
36.4407401091405134
 20
13.7947646657571603
 10
36.2868349249658877
 20
13.7738744884038198
 10
35.9345156889495172
 20
13.7571623465211488
 10
34.409276944065482
 20
13.7571623465211488
  0
LWPOLYLINE
  5
4A
  8
Text
 62
256
370
-1
  6
CONTINUOUS
100
AcDbEntity
100
AcDbPolyline
 90
25
 70
1
 10
34.9386084583901777
 20
16.0763983628922205
 10
35.8035470668485729
 20
16.0763983628922205
 10
36.1057298772169233
 20
16.0879945429740729
 10
36.3083219645293269
 20
16.1227830832196375
 10
36.4030525238744929
 20
16.1577421555252272
 10
36.4853342428376521
 20
16.2025920873124107
 10
36.5551671214188332
 20
16.2573328785811668
 10
36.6125511596180075
 20
16.3219645293315097
 10
36.6573158253751572
 20
16.3959754433833496
 10
36.6892905866302925
 20
16.4788540245566111
 10
36.7084754433833567
 20
16.5706002728512871
 10
36.714870395634378
 20
16.6712141882673919
 10
36.7089017735334266
 20
16.7678206002728416
 10
36.6909959072305583
 20
16.858458390177347
 10
36.6611527967257871
 20
16.9431275579809011
 10
36.6193724420190989
 20
17.0218281036834895
 10
36.5665075034106408
 20
17.091575716234658
 10
36.5034106412005528
 20
17.1493860845839023
 10
36.4300818553888135
 20
17.1952592087312368
 10
36.3465211459754372
 20
17.2291950886766827
 10
36.2419849931787184
 20
17.2536664392905905
 10
36.1057298772169233
 20
17.2711459754433889
 10
35.7380627557980901
 20
17.285129604365622
 10
34.9386084583901777
 20
17.285129604365622
 10
34.9386084583901777
 20
16.0763983628922205
  0
LWPOLYLINE
  5
4B
  8
Text
 62
256
370
-1
  6
CONTINUOUS
100
AcDbEntity
100
AcDbPolyline
 90
26
 70
1
 10
34.9386084583901777
 20
14.2291950886766685
 10
35.9345156889495172
 20
14.2291950886766685
 10
36.152796725784448
 20
14.2339699863574403
 10
36.2946793997271513
 20
14.2482946793997307
 10
36.4624829467939975
 20
14.2919508867667098
 10
36.6002728512960402
 20
14.357435197817189
 10
36.6589358799454175
 20
14.399982946794001
 10
36.7121418826739401
 20
14.4512278308321989
 10
36.8021828103683504
 20
14.5798090040927697
 10
36.8368008185538898
 20
14.6556105047748986
 10
36.8615279672578424
 20
14.7370395634379214
 10
36.8763642564802225
 20
14.8240961800818489
 10
36.8813096862210088
 20
14.9167803547066811
 10
36.87414733969986
 20
15.024982946794001
 10
36.8526603001364208
 20
15.1258526603001293
 10
36.8168485675306982
 20
15.2193894952251014
 10
36.7667121418826781
 20
15.3055934515688996
 10
36.7038710777626278
 20
15.3819918144611201
 10
36.6299454297407934
 20
15.4461118690313803
 10
36.5449351978172032
 20
15.4979536152796697
 10
36.4488403819918076
 20
15.537517053205999
 10
36.3360334242837624
 20
15.5667633015006786
 10
36.2008867667121521
 20
15.5876534788540191
 10
35.8635743519781727
 20
15.6043656207367007
 10
34.9386084583901777
 20
15.6043656207367007
 10
34.9386084583901777
 20
14.2291950886766685
  0
LWPOLYLINE
  5
4C
  8
Text
 62
256
370
-1
  6
CONTINUOUS
100
AcDbEntity
100
AcDbPolyline
 90
5
 70
1
 10
38.0845839017735273
 20
13.7571623465211488
 10
38.0845839017735273
 20
17.7571623465211417
 10
38.5757162346521127
 20
17.7571623465211417
 10
38.5757162346521127
 20
13.7571623465211488
 10
38.0845839017735273
 20
13.7571623465211488
  0
LWPOLYLINE
  5
4D
  8
Text
 62
256
370
-1
  6
CONTINUOUS
100
AcDbEntity
100
AcDbPolyline
 90
53
 70
1
 10
41.236016371077767
 20
13.7571623465211488
 10
41.236016371077767
 20
14.1828103683492515
 10
41.1476381309686303
 20
14.0677012278308311
 10
41.0516712141882678
 20
13.9679399727148699
 10
40.9481156207367007
 20
13.8835266030013607
 10
40.8369713506139078
 20
13.8144611186903106
 10
40.7182384038199174
 20
13.7607435197817196
 10
40.5919167803547012
 20
13.7223738062755807
 10
40.4580064802182733
 20
13.6993519781718902
 10
40.3165075034106408
 20
13.6916780354706695
 10
40.1903990450204631
 20
13.6978171896316496
 10
40.0685538881309711
 20
13.7162346521145899
 10
39.9509720327421576
 20
13.7469304229195117
 10
39.8376534788540226
 20
13.7899045020463795
 10
39.7336289222373793
 20
13.8421725784447496
 10
39.6439290586630335
 20
13.9007503410641213
 10
39.5685538881309569
 20
13.9656377899044983
 10
39.5075034106412133
 20
14.0368349249658912
 10
39.4576227830832167
 20
14.1153649386084616
 10
39.415757162346523
 20
14.2022510231923604
 10
39.3819065484310968
 20
14.2974931787175983
 10
39.3560709413369665
 20
14.4010914051841787
 10
39.3335607094133692
 20
14.58799454297408
 10
39.3260572987721702
 20
14.8594815825375193
 10
39.3260572987721702
 20
16.6548431105047712
 10
39.8171896316507485
 20
16.6548431105047712
 10
39.8171896316507485
 20
15.0477489768076396
 10
39.8246930422919476
 20
14.7257844474761193
 10
39.847203274215552
 20
14.5293315143246886
 10
39.8768758526603122
 20
14.4376705320600287
 10
39.919508867667119
 20
14.3564120054570203
 10
39.9751023192360222
 20
14.2855559345156813
 10
40.0436562073669933
 20
14.2251023192360186
 10
40.1231241473396878
 20
14.1767564802182804
 10
40.2114597544338324
 20
14.14222373806275
 10
40.3086630286493914
 20
14.1215040927694417
 10
40.4147339699863579
 20
14.1145975443383307
 10
40.5235334242837695
 20
14.1216746248294704
 10
40.6289222373806282
 20
14.1429058663028613
 10
40.7309004092769413
 20
14.178291268758521
 10
40.8294679399727229
 20
14.2278308321964495
 10
40.9192530695770813
 20
14.2895634379263292
 10
40.9948840381991815
 20
14.3615279672578389
 10
41.0563608458390235
 20
14.4437244201909998
 10
41.103683492496593
 20
14.53615279672578
 10
41.1388983628922205
 20
14.6446964529331503
 10
41.1640518417462431
 20
14.7752387448840388
 10
41.1791439290586609
 20
14.9277796725784491
 10
41.1841746248294669
 20
15.1023192360163705
 10
41.1841746248294669
 20
16.6548431105047712
 10
41.6753069577080524
 20
16.6548431105047712
 10
41.6753069577080524
 20
13.7571623465211488
 10
41.236016371077767
 20
13.7571623465211488
  0
LWPOLYLINE
  5
4E
  8
Text
 62
256
370
-1
  6
CONTINUOUS
100
AcDbEntity
100
AcDbPolyline
 90
76
 70
1
 10
44.4283765347885407
 20
14.6903137789904505
 10
44.9358799454297468
 20
14.6275579809004093
 10
44.8630627557980972
 20
14.417633015006821
 10
44.7646657571623479
 20
14.2326057298772106
 10
44.640688949522513
 20
14.0724761255115887
 10
44.4911323328785926
 20
13.9372442019099587
 10
44.3175306957708131
 20
13.8298090040927697
 10
44.1214188267394434
 20
13.7530695770804883
 10
43.9027967257844622
 20
13.7070259208731215
 10
43.6616643929058696
 20
13.6916780354706695
 10
43.5068425989086123
 20
13.6977958731241394
 10
43.3602489768076467
 20
13.7161493860845809
 10
43.2218835266030084
 20
13.7467385743519692
 10
43.0917462482946831
 20
13.7895634379263292
 10
42.9698371418826781
 20
13.8446239768076396
 10
42.8561562073669933
 20
13.9119201909959003
 10
42.7507034447476073
 20
13.9914520804911291
 10
42.6534788540245628
 20
14.0832196452933083
 10
42.5661877557980901
 20
14.1860291609822617
 10
42.4905354706684832
 20
14.2986869031377886
 10
42.4265219986357422
 20
14.4211928717598887
 10
42.37414733969986
 20
14.5535470668485694
 10
42.3334114938608366
 20
14.6957494884038198
 10
42.3043144611186932
 20
14.8478001364256507
 10
42.2868562414734015
 20
15.0096990109140513
 10
42.2810368349249686
 20
15.1814461118690289
 10
42.2869201909959074
 20
15.3591405184174583
 10
42.3045702592087309
 20
15.5266030013642506
 10
42.3339870395634392
 20
15.6838335607094095
 10
42.3751705320600323
 20
15.8308321964529313
 10
42.4281207366985029
 20
15.9675989085948196
 10
42.4928376534788583
 20
16.0941336971350566
 10
42.5693212824010914
 20
16.2104365620736672
 10
42.6575716234652234
 20
16.3165075034106408
 10
42.7552012278308382
 20
16.4111527967257871
 10
42.8598226466575767
 20
16.4931787175989086
 10
42.9714358799454388
 20
16.5625852660300126
 10
43.0900409276944174
 20
16.6193724420190989
 10
43.2156377899045125
 20
16.6635402455661676
 10
43.3482264665757171
 20
16.6950886766712188
 10
43.4878069577080595
 20
16.7140177353342523
 10
43.6343792633014971
 20
16.7203274215552469
 10
43.7763472032742129
 20
16.7141456343792569
 10
43.9116643929058625
 20
16.6956002728512871
 10
44.0403308321964531
 20
16.6646913369713516
 10
44.1623465211459774
 20
16.6214188267394292
 10
44.2777114597544426
 20
16.5657827421555268
 10
44.3864256480218273
 20
16.4977830832196375
 10
44.4884890859481601
 20
16.4174198499317896
 10
44.5839017735334266
 20
16.3246930422919476
 10
44.6702336289222401
 20
16.2207537517053169
 10
44.7450545702592066
 20
16.1067530695770813
 10
44.8083645975443403
 20
15.9826909959072303
 10
44.860163710777627
 20
15.848567530695771
 10
44.9004519099590667
 20
15.7043826739426997
 10
44.9292291950886806
 20
15.5501364256480201
 10
44.9464955661664405
 20
15.3858287858117286
 10
44.9522510231923604
 20
15.2114597544338288
 10
44.9495225102319296
 20
15.080491132332881
 10
42.7885402455661676
 20
15.080491132332881
 10
42.815654843110508
 20
14.8557298772169091
 10
42.8697135061391634
 20
14.6589358799454317
 10
42.9507162346521199
 20
14.4901091405184204
 10
43.0586630286493914
 20
14.3492496589358787
 10
43.1875852660300197
 20
14.2382332878581188
 10
43.3315143246930532
 20
14.1589358799454317
 10
43.4904502046384778
 20
14.1113574351978208
 10
43.6643929058663076
 20
14.0954979536152791
 10
43.7945088676671332
 20
14.1043656207367007
 10
43.9147339699863721
 20
14.1309686221009514
 10
44.0250682128240172
 20
14.1753069577080488
 10
44.1255115961800897
 20
14.2373806275579788
 10
44.2160641200545825
 20
14.3188949522510214
 10
44.2967257844474815
 20
14.4215552523874493
 10
44.367496589358808
 20
14.545361527967259
 10
44.4283765347885407
 20
14.6903137789904505
  0
LWPOLYLINE
  5
4F
  8
Text
 62
256
370
-1
  6
CONTINUOUS
100
AcDbEntity
100
AcDbPolyline
 90
18
 70
1
 10
42.8158253751705331
 20
15.4843110504774906
 10
44.4338335607094166
 20
15.4843110504774906
 10
44.4099590723055968
 20
15.6556957708049111
 10
44.3710777626193789
 20
15.8042291950886806
 10
44.3171896316507627
 20
15.9299113233287883
 10
44.2482946793997272
 20
16.0327421555252414
 10
44.1222714870395691
 20
16.1568894952251014
 10
43.9788540245566324
 20
16.2455661664392892
 10
43.8180422919509027
 20
16.2987721691677976
 10
43.6398362892223801
 20
16.3165075034106408
 10
43.4774045020463902
 20
16.3023533424283826
 10
43.3284447476125507
 20
16.2598908594815867
 10
43.192957025920883
 20
16.1891200545702603
 10
43.0709413369713587
 20
16.0900409276944032
 10
42.9685368349249686
 20
15.9672578444747586
 10
42.8918826739427033
 20
15.8253751705320589
 10
42.8409788540245628
 20
15.6643929058663005
 10
42.8158253751705331
 20
15.4843110504774906
  0
LWPOLYLINE
  5
50
  8
Text
 62
256
370
-1
  6
CONTINUOUS
100
AcDbEntity
100
AcDbPolyline
 90
45
 70
1
 10
34.4392905866302925
 20
7.5143246930422904
 10
34.4392905866302925
 20
11.5143246930422904
 10
36.2128240109140478
 20
11.5143246930422904
 10
36.4641882673942774
 20
11.5075886766712117
 10
36.6834924965893734
 20
11.4873806275579788
 10
36.8707366984993214
 20
11.4537005457025884
 10
37.02592087312415
 20
11.4065484311050405
 10
37.1580832196452917
 20
11.3423431105047712
 10
37.2762619372442003
 20
11.2575034106411991
 10
37.380457025920883
 20
11.1520293315143206
 10
37.4706684856752972
 20
11.0259208731241394
 10
37.5434856753069468
 20
10.8859140518417412
 10
37.5954979536152791
 20
10.7387448840382014
 10
37.6267053206002728
 20
10.5844133697134986
 10
37.6371077762619421
 20
10.4229195088676612
 10
37.6198840381991673
 20
10.2184515688949489
 10
37.5682128240109066
 20
10.0306957708049111
 10
37.4820941336971316
 20
9.8596521145975409
 10
37.3615279672578424
 20
9.7053206002728487
 10
37.2879433833560725
 20
9.6356582537516999
 10
37.2049795361527913
 20
9.5726466575716209
 10
37.1126364256480201
 20
9.516285811732601
 10
37.0109140518417377
 20
9.4665757162346509
 10
36.7793315143247028
 20
9.3871077762619386
 10
36.510231923601637
 20
9.3342428376534805
 10
36.6950886766712188
 20
9.2339699863574296
 10
36.8294679399727229
 20
9.1350613915416083
 10
36.9438949522510214
 20
9.0219986357435182
 10
37.0552523874488386
 20
8.8956343792632993
 10
37.1635402455661676
 20
8.7559686221009514
 10
37.2687585266030013
 20
8.6030013642564818
 10
37.9645293315143277
 20
7.5143246930422904
 10
37.2987721691677976
 20
7.5143246930422904
 10
36.769440654843109
 20
8.3465211459754407
 10
36.5579809004092766
 20
8.6643929058663005
 10
36.3874488403819925
 20
8.8976807639836295
 10
36.2452251023192389
 20
9.0600272851295998
 10
36.1186903137789912
 20
9.1650750341064082
 10
35.9989768076398278
 20
9.2298772169167798
 10
35.8772169167803625
 20
9.2714870395634392
 10
35.7585266030013571
 20
9.2858117326057297
 10
35.582537517053197
 20
9.2905866302864908
 10
34.9686221009549811
 20
9.2905866302864908
 10
34.9686221009549811
 20
7.5143246930422904
 10
34.4392905866302925
 20
7.5143246930422904
  0
LWPOLYLINE
  5
51
  8
Text
 62
256
370
-1
  6
CONTINUOUS
100
AcDbEntity
100
AcDbPolyline
 90
24
 70
1
 10
34.9686221009549811
 20
9.7489768076398313
 10
36.1064120054570168
 20
9.7489768076398313
 10
36.2779672578444732
 20
9.7536664392905799
 10
36.4297407912687632
 20
9.7677353342428397
 10
36.5617326057298726
 20
9.7911834924965895
 10
36.6739427012278298
 20
9.8240109140518399
 10
36.7701227830832167
 20
9.86715552523874
 10
36.8540245566166433
 20
9.9215552523874493
 10
36.9256480218281098
 20
9.9872100954979501
 10
36.9849931787176018
 20
10.0641200545702603
 10
37.0315484311050511
 20
10.1484481582537498
 10
37.064802182810368
 20
10.2363574351978208
 10
37.0847544338335666
 20
10.3278478854024591
 10
37.0914051841746328
 20
10.4229195088676612
 10
37.0785300136425633
 20
10.5584924965893592
 10
37.0399045020463831
 20
10.6814461118690289
 10
36.9755286493860922
 20
10.7917803547066811
 10
36.8854024556616622
 20
10.8894952251023192
 10
36.7674795361527984
 20
10.9694747612551105
 10
36.6197135061391492
 20
11.0266030013642506
 10
36.4421043656207431
 20
11.0608799454297397
 10
36.2346521145975373
 20
11.0723055934515706
 10
34.9686221009549811
 20
11.0723055934515706
 10
34.9686221009549811
 20
9.7489768076398313
  0
LWPOLYLINE
  5
52
  8
Text
 62
256
370
-1
  6
CONTINUOUS
100
AcDbEntity
100
AcDbPolyline
 90
76
 70
1
 10
40.3874488403819925
 20
8.4474761255115993
 10
40.8949522510231915
 20
8.3847203274215509
 10
40.8221350613915419
 20
8.1747953615279698
 10
40.7237380627557997
 20
7.9897680763983594
 10
40.5997612551159577
 20
7.829638472032741
 10
40.4502046384720302
 20
7.6944065484311004
 10
40.2766030013642506
 20
7.5869713506139114
 10
40.0804911323328668
 20
7.5102319236016406
 10
39.8618690313778927
 20
7.4641882673942703
 10
39.6207366984993072
 20
7.4488403819918112
 10
39.4659149045020428
 20
7.4549582196452917
 10
39.3193212824010772
 20
7.4733117326057297
 10
39.1809558321964531
 20
7.5039009208731215
 10
39.0508185538881278
 20
7.5467257844474709
 10
38.9289094474761228
 20
7.6017863233287812
 10
38.815228512960438
 20
7.669082537517049
 10
38.7097757503410733
 20
7.7486144270122814
 10
38.6125511596180075
 20
7.8403819918144606
 10
38.5252600613915419
 20
7.9431915075034105
 10
38.4496077762619421
 20
8.0558492496589302
 10
38.3855943042291869
 20
8.1783552182810304
 10
38.3332196452933118
 20
8.310709413369711
 10
38.2924837994542884
 20
8.4529118349249686
 10
38.2633867667121379
 20
8.6049624829467994
 10
38.2459285470668533
 20
8.7668613574352001
 10
38.2401091405184133
 20
8.9386084583901813
 10
38.2459924965893521
 20
9.1163028649386106
 10
38.2636425648021827
 20
9.2837653478853994
 10
38.2930593451568768
 20
9.4409959072305583
 10
38.334242837653477
 20
9.58799454297408
 10
38.3871930422919476
 20
9.7247612551159612
 10
38.4519099590723101
 20
9.8512960436562089
 10
38.5283935879945432
 20
9.9675989085948196
 10
38.6166439290586609
 20
10.0736698499317896
 10
38.7142735334242829
 20
10.1683151432469288
 10
38.8188949522510072
 20
10.2503410641200503
 10
38.9305081855388835
 20
10.3197476125511614
 10
39.0491132332878479
 20
10.3765347885402406
 10
39.1747100954979501
 20
10.4207025920873093
 10
39.3072987721691618
 20
10.4522510231923604
 10
39.4468792633014971
 20
10.4711800818553904
 10
39.5934515688949489
 20
10.4774897680763992
 10
39.7354195088676576
 20
10.4713079809004093
 10
39.8707366984993072
 20
10.4527626193724394
 10
39.9994031377898978
 20
10.4218536834924898
 10
40.1214188267394292
 20
10.3785811732605708
 10
40.2367837653478873
 20
10.3229450886766685
 10
40.3454979536152791
 20
10.2549454297407898
 10
40.4475613915416119
 20
10.1745821964529313
 10
40.5429740791268785
 20
10.0818553888130999
 10
40.6293059345156919
 20
9.9779160982264692
 10
40.7041268758526726
 20
9.8639154160982301
 10
40.7674369031377921
 20
9.7398533424283791
 10
40.8192360163710788
 20
9.6057298772169197
 10
40.8595242155525327
 20
9.4615450204638414
 10
40.8883015006821324
 20
9.3072987721691689
 10
40.9055678717598923
 20
9.1429911323328703
 10
40.9113233287858122
 20
8.9686221009549811
 10
40.9085948158253672
 20
8.8376534788540191
 10
38.7476125511596123
 20
8.8376534788540191
 10
38.7747271487039527
 20
8.6128922237380614
 10
38.828785811732601
 20
8.4160982264665698
 10
38.9097885402455574
 20
8.2472714870395585
 10
39.017735334242829
 20
8.1064120054570203
 10
39.1466575716234573
 20
7.9953956343792605
 10
39.2905866302864908
 20
7.9160982264665698
 10
39.4495225102319225
 20
7.8685197817189589
 10
39.6234652114597523
 20
7.8526603001364208
 10
39.7535811732605708
 20
7.8615279672578389
 10
39.8738062755798026
 20
7.8881309686221002
 10
39.9841405184174477
 20
7.9324693042291905
 10
40.0845839017735273
 20
7.9945429740791205
 10
40.1751364256480201
 20
8.0760572987721702
 10
40.2557980900409333
 20
8.178717598908591
 10
40.3265688949522527
 20
8.3025238744884007
 10
40.3874488403819925
 20
8.4474761255115993
  0
LWPOLYLINE
  5
53
  8
Text
 62
256
370
-1
  6
CONTINUOUS
100
AcDbEntity
100
AcDbPolyline
 90
18
 70
1
 10
38.7748976807639778
 20
9.2414733969986393
 10
40.3929058663028613
 20
9.2414733969986393
 10
40.3690313778990273
 20
9.4128581173260599
 10
40.3301500682128164
 20
9.5613915416098187
 10
40.2762619372442003
 20
9.68707366984993
 10
40.207366984993179
 20
9.7899045020463795
 10
40.0813437926330067
 20
9.9140518417462502
 10
39.9379263301500629
 20
10.0027285129604415
 10
39.7771145975443332
 20
10.0559345156889499
 10
39.5989085948158177
 20
10.0736698499317896
 10
39.4364768076398278
 20
10.0595156889495208
 10
39.2875170532060025
 20
10.0170532060027284
 10
39.1520293315143206
 20
9.9462824010913984
 10
39.0300136425648034
 20
9.8472032742155484
 10
38.9276091405184133
 20
9.7244201909959109
 10
38.8509549795361622
 20
9.5825375170532112
 10
38.8000511596180075
 20
9.4215552523874493
 10
38.7748976807639778
 20
9.2414733969986393
  0
LWPOLYLINE
  5
54
  8
Text
 62
256
370
-1
  6
CONTINUOUS
100
AcDbEntity
100
AcDbPolyline
 90
46
 70
1
 10
43.391541609822653
 20
7.5143246930422904
 10
43.391541609822653
 20
7.8799454297407898
 10
43.3185965211459774
 20
7.7789051841746293
 10
43.2375511596180075
 20
7.6913369713506086
 10
43.1484055252387435
 20
7.6172407912687596
 10
43.0511596180081924
 20
7.5566166439290505
 10
42.9458134379263328
 20
7.5094645293315097
 10
42.832366984993179
 20
7.4757844474761193
 10
42.7108202592087309
 20
7.45557639836289
 10
42.5811732605729887
 20
7.4488403819918112
 10
42.4114085948158177
 20
7.4607776261937211
 10
42.2486357435197775
 20
7.4965893587994508
 10
42.0928547066848608
 20
7.5562755798090002
 10
41.9440654843110465
 20
7.6398362892223695
 10
41.8069577080491115
 20
7.7447987721691689
 10
41.6862210095497971
 20
7.8686903137789912
 10
41.5818553888131035
 20
8.0115109140518399
 10
41.4938608458390235
 20
8.1732605729877186
 10
41.4240279672578424
 20
8.3508697135061389
 10
41.37414733969986
 20
8.5412687585265985
 10
41.3442189631650834
 20
8.7444577080491115
 10
41.334242837653477
 20
8.9604365620736708
 10
41.3432810368349166
 20
9.1723226466575696
 10
41.3703956343792569
 20
9.37414733969986
 10
41.4155866302864908
 20
9.5659106412005386
 10
41.4788540245566111
 20
9.7476125511596194
 10
41.560197817189632
 20
9.9139665757162305
 10
41.6596180081855394
 20
10.0596862210095495
 10
41.7771145975443403
 20
10.1847714870395585
 10
41.9126875852660277
 20
10.2892223738062789
 10
42.0615620736698475
 20
10.3715893587994508
 10
42.2189631650750314
 20
10.4304229195088602
 10
42.3848908594815867
 20
10.4657230559345109
 10
42.559345156889492
 20
10.4774897680763992
 10
42.6867326057298726
 20
10.4705832196452917
 10
42.8069577080491115
 20
10.4498635743519799
 10
42.9200204638472087
 20
10.4153308321964495
 10
43.02592087312415
 20
10.3669849931787112
 10
43.1234652114597594
 20
10.3075545702592102
 10
43.2114597544338324
 20
10.2397680763983594
 10
43.2899045020463831
 20
10.1636255115961802
 10
43.3587994542973973
 20
10.0791268758526584
 10
43.3587994542973973
 20
11.5143246930422904
 10
43.847203274215552
 20
11.5143246930422904
 10
43.847203274215552
 20
7.5143246930422904
 10
43.391541609822653
 20
7.5143246930422904
  0
LWPOLYLINE
  5
55
  8
Text
 62
256
370
-1
  6
CONTINUOUS
100
AcDbEntity
100
AcDbPolyline
 90
38
 70
1
 10
41.8390177353342523
 20
8.9604365620736708
 10
41.853683492496593
 20
8.6996930422919512
 10
41.8976807639836295
 20
8.47407912687585
 10
41.9710095497953688
 20
8.2835948158253707
 10
42.0186732605729887
 20
8.2015262619372393
 10
42.0736698499317896
 20
8.1282401091405205
 10
42.196282401091409
 20
8.0076739427012207
 10
42.3294679399727229
 20
7.9215552523874493
 10
42.4732264665757171
 20
7.8698840381991815
 10
42.6275579809004128
 20
7.8526603001364208
 10
42.7824863574351966
 20
7.8691166439290505
 10
42.9253069577080524
 20
7.9184856753069504
 10
43.0560197817189589
 20
8.0007673942701203
 10
43.1746248294679376
 20
8.1159618008185497
 10
43.2273831855388835
 20
8.1861144270122814
 10
43.2731070941336924
 20
8.2649215552523891
 10
43.3434515688949489
 20
8.4484993178717609
 10
43.3856582537516999
 20
8.6666950886766685
 10
43.3997271487039527
 20
8.919508867667119
 10
43.3854024556616622
 20
9.1971350613915384
 10
43.3424283765347766
 20
9.4351978171896285
 10
43.310197817189632
 20
9.5393929058663005
 10
43.2708049113233173
 20
9.6336971350613894
 10
43.2242496589358822
 20
9.7181105047748986
 10
43.1705320600272771
 20
9.792633015006821
 10
43.0492837653478801
 20
9.9143929058663005
 10
42.9147339699863579
 20
10.001364256480219
 10
42.7668826739427033
 20
10.0535470668485694
 10
42.6057298772169233
 20
10.0709413369713516
 10
42.4487551159618022
 20
10.05422919508867
 10
42.3052523874488529
 20
10.0040927694406498
 10
42.1752216916780398
 20
9.9205320600272806
 10
42.0586630286493914
 20
9.8035470668485694
 10
42.0071836630286626
 20
9.7318809686221002
 10
41.9625682128240101
 20
9.6505798090040891
 10
41.8939290586630335
 20
9.4590723055934482
 10
41.8527455661664476
 20
9.2290245566166398
 10
41.8390177353342523
 20
8.9604365620736708
  0
LWPOLYLINE
  5
56
  8
Text
 62
256
370
-1
  6
CONTINUOUS
100
AcDbEntity
100
AcDbPolyline
 90
103
 70
1
 10
36.3028649386084581
 20
2.8403819918144606
 10
36.3028649386084581
 20
3.3096862210095495
 10
37.997271487039562
 20
3.3124147339699803
 10
37.997271487039562
 20
1.8281036834924898
 10
37.8006480218281098
 20
1.6822135061391492
 10
37.6009549795361622
 20
1.555593451568889
 10
37.3981923601636979
 20
1.448243519781709
 10
37.1923601637107666
 20
1.3601637107776199
 10
36.9836289222373793
 20
1.2915245566166398
 10
36.7721691678035469
 20
1.2424965893588009
 10
36.5579809004092766
 20
1.2130798090040891
 10
36.3410641200545683
 20
1.2032742155525185
 10
36.0531207366985029
 20
1.2190484311050405
 10
35.778649386084588
 20
1.2663710777626207
 10
35.5176500682128307
 20
1.3452421555252414
 10
35.2701227830832167
 20
1.4556616643929097
 10
35.0440825375170633
 20
1.5959242837653491
 10
34.9421256821282427
 20
1.6766072646657584
 10
34.8475443383356094
 20
1.7643246930422904
 10
34.7603385061391634
 20
1.8590765688949489
 10
34.6805081855388835
 20
1.9608628922237408
 10
34.5429740791268785
 20
2.1855388813096788
 10
34.4355388813096894
 20
2.4312755798090002
 10
34.3587994542974116
 20
2.6909959072305512
 10
34.3127557980900377
 20
2.9646998635743493
 10
34.2974079126875822
 20
3.2523874488403806
 10
34.3126705320600323
 20
3.5394781718963202
 10
34.358458390177347
 20
3.8168485675306911
 10
34.434771487039562
 20
4.0844986357435111
 10
34.541609822646663
 20
4.3424283765347802
 10
34.6770975443383307
 20
4.579212141882671
 10
34.7548814802182804
 20
4.6853896657571603
 10
34.8393587994543026
 20
4.7834242837653385
 10
34.9305295020463831
 20
4.8733159959072303
 10
35.0283935879945432
 20
4.9550648021828003
 10
35.1329510572987687
 20
5.0286707025920805
 10
35.2442019099590667
 20
5.0941336971350601
 10
35.4820941336971387
 20
5.2015688949522492
 10
35.7373806275579824
 20
5.2783083219645199
 10
36.0100613915416119
 20
5.3243519781718902
 10
36.3001364256480201
 20
5.3396998635743493
 10
36.5118519781718902
 20
5.3309174624829403
 10
36.7131650750341123
 20
5.3045702592087309
 10
36.9040757162346509
 20
5.2606582537516999
 10
37.0845839017735273
 20
5.1991814461118686
 10
37.2504263301500771
 20
5.1220156889495208
 10
37.3973396998635792
 20
5.0310368349249615
 10
37.5253240109140478
 20
4.9262448840382014
 10
37.6343792633014971
 20
4.8076398362892192
 10
37.7280013642564782
 20
4.6725784447476109
 10
37.8096862210095495
 20
4.5184174624829403
 10
37.8794338335607108
 20
4.3451568894952217
 10
37.9372442019099623
 20
4.1527967257844409
 10
37.4597544338335595
 20
4.0218281036834895
 10
37.4120054570259271
 20
4.1664392905866308
 10
37.3587994542974116
 20
4.2946793997271406
 10
37.3001364256480272
 20
4.4065484311050405
 10
37.236016371077767
 20
4.5020463847203196
 10
37.1620054570259271
 20
4.5850102319236008
 10
37.0736698499317896
 20
4.6592769440654784
 10
36.9710095497953617
 20
4.7248465211459703
 10
36.8540245566166433
 20
4.7817189631650692
 10
36.7264665757162305
 20
4.8276773533424304
 10
36.5920873124147334
 20
4.8605047748976808
 10
36.4508867667121521
 20
4.8802012278308311
 10
36.3028649386084581
 20
4.8867667121418812
 10
36.1275579809004128
 20
4.8798601637107701
 10
35.9645293315143277
 20
4.8591405184174583
 10
35.8137789904502029
 20
4.8246077762619386
 10
35.6753069577080524
 20
4.7762619372442003
 10
35.5493690313778998
 20
4.7166609822646599
 10
35.4362210095497971
 20
4.6483628922237408
 10
35.3358628922237372
 20
4.5713676671214216
 10
35.2482946793997272
 20
4.4856753069577096
 10
35.1040245566166433
 20
4.2967257844474709
 10
35.0454467939972716
 20
4.1956002728512907
 10
34.9959072305593466
 20
4.0900409276943996
 10
34.9290586630286484
 20
3.9005798090040891
 10
34.8813096862210088
 20
3.7032742155525185
 10
34.8526603001364279
 20
3.4981241473396913
 10
34.8431105047748986
 20
3.2851296043656184
 10
34.8546214188267385
 20
3.0286493860845809
 10
34.8891541609822724
 20
2.79399727148704
 10
34.9467087312414719
 20
2.5811732605729887
 10
35.0272851296043726
 20
2.3901773533424304
 10
35.1298601637107666
 20
2.2216916780354694
 10
35.2534106412005528
 20
2.0763983628922205
 10
35.3979365620736672
 20
1.95429740791268
 10
35.5634379263301525
 20
1.8553888130968588
 10
35.7421555252387435
 20
1.7789904502046312
 10
35.9263301500682104
 20
1.7244201909959109
 10
36.1159618008185532
 20
1.6916780354706695
 10
36.3110504774897578
 20
1.6807639836289212
 10
36.4819236016371065
 20
1.6890347885402406
 10
36.6507503410641178
 20
1.7138472032742094
 10
36.8175306957707988
 20
1.7552012278308311
 10
36.9822646657571568
 20
1.8130968622100987
 10
37.1360845839017699
 20
1.8803717598908598
 10
37.2701227830832167
 20
1.9498635743519799
 10
37.3843792633014971
 20
2.0215723055934482
 10
37.4788540245566182
 20
2.0954979536152791
 10
37.4788540245566182
 20
2.8403819918144606
 10
36.3028649386084581
 20
2.8403819918144606
  0
LWPOLYLINE
  5
57
  8
Text
 62
256
370
-1
  6
CONTINUOUS
100
AcDbEntity
100
AcDbPolyline
 90
35
 70
1
 10
38.7094133697135092
 20
1.2714870395634392
 10
38.7094133697135092
 20
4.1691678035470687
 10
39.1514324693042326
 20
4.1691678035470687
 10
39.1514324693042326
 20
3.7298772169167798
 10
39.2343963165075067
 20
3.8709072305593395
 10
39.3141200545702603
 20
3.9856753069577096
 10
39.3906036834925004
 20
4.0741814461118686
 10
39.4638472032742129
 20
4.1364256480218309
 10
39.5372612551159577
 20
4.1793997271486987
 10
39.6142564802182804
 20
4.2100954979536098
 10
39.6948328785811668
 20
4.2285129604365608
 10
39.7789904502046383
 20
4.2346521145975409
 10
39.9036493860845809
 20
4.2247612551159612
 10
40.0293315143247028
 20
4.1950886766712117
 10
40.1560368349249686
 20
4.1456343792632993
 10
40.2837653478854065
 20
4.0763983628922205
 10
40.1145975443383378
 20
3.6207366984993108
 10
40.0245566166439275
 20
3.6672919508867601
 10
39.9345156889495172
 20
3.7005457025920911
 10
39.8444747612551069
 20
3.7204979536152791
 10
39.7544338335607108
 20
3.7271487039563382
 10
39.6759890859481601
 20
3.7210948158253707
 10
39.6016371077762628
 20
3.7029331514324717
 10
39.5313778990450331
 20
3.6726637107776199
 10
39.4652114597544426
 20
3.6302864938608401
 10
39.4056957708049111
 20
3.5771657571623514
 10
39.355388813096873
 20
3.5146657571623408
 10
39.3142905866302925
 20
3.4427864938608401
 10
39.2824010914051769
 20
3.3615279672578389
 10
39.2465893587994472
 20
3.2274897680763992
 10
39.2210095497953617
 20
3.0873124147339688
 10
39.2056616643929132
 20
2.9409959072305512
 10
39.2005457025920876
 20
2.7885402455661605
 10
39.2005457025920876
 20
1.2714870395634392
 10
38.7094133697135092
 20
1.2714870395634392
  0
LWPOLYLINE
  5
58
  8
Text
 62
256
370
-1
  6
CONTINUOUS
100
AcDbEntity
100
AcDbPolyline
 90
76
 70
1
 10
42.559345156889492
 20
2.204638472032741
 10
43.0668485675306982
 20
2.1418826739426997
 10
42.9940313778990486
 20
1.9319577080491115
 10
42.8956343792632993
 20
1.7469304229195011
 10
42.7716575716234573
 20
1.5868008185538791
 10
42.6221009549795369
 20
1.4515688949522492
 10
42.4484993178717573
 20
1.3441336971350601
 10
42.2523874488403877
 20
1.2673942701227787
 10
42.0337653478854065
 20
1.2213506139154084
 10
41.792633015006821
 20
1.20600272851296
 10
41.6378112210095566
 20
1.2121205661664298
 10
41.4912175989085981
 20
1.2304740791268713
 10
41.3528521487039598
 20
1.2610632673942597
 10
41.2227148703956274
 20
1.3038881309686197
 10
41.1008057639836295
 20
1.35894866984993
 10
40.9871248294679376
 20
1.4262448840381907
 10
40.8816720668485729
 20
1.5057767735334195
 10
40.7844474761255071
 20
1.5975443383355987
 10
40.6971563778990415
 20
1.7003538540245486
 10
40.6215040927694275
 20
1.813011596180079
 10
40.5574906207366865
 20
1.9355175648021792
 10
40.5051159618008114
 20
2.0678717598908598
 10
40.4643801159618022
 20
2.2100741814461102
 10
40.4352830832196375
 20
2.3621248294679411
 10
40.4178248635743529
 20
2.5240237039563382
 10
40.41200545702592
 20
2.6957708049113194
 10
40.417888813096873
 20
2.8734652114597488
 10
40.4355388813096823
 20
3.0409276944065411
 10
40.4649556616643906
 20
3.1981582537516999
 10
40.5061391541609765
 20
3.3451568894952217
 10
40.5590893587994472
 20
3.48192360163711
 10
40.6238062755798097
 20
3.6084583901773506
 10
40.7002899045020428
 20
3.7247612551159612
 10
40.7885402455661676
 20
3.8308321964529313
 10
40.8861698499317896
 20
3.9254774897680704
 10
40.9907912687585281
 20
4.0075034106411991
 10
41.1024045020463902
 20
4.0769099590722995
 10
41.2210095497953688
 20
4.1336971350613894
 10
41.3466064120054568
 20
4.1778649386084616
 10
41.4791950886766827
 20
4.2094133697134986
 10
41.6187755798090109
 20
4.2283424283765285
 10
41.7653478854024627
 20
4.2346521145975409
 10
41.9073158253751572
 20
4.2284703274215509
 10
42.0426330150068068
 20
4.2099249658935811
 10
42.1712994542973973
 20
4.1790160300136314
 10
42.2933151432469288
 20
4.135743519781709
 10
42.4086800818553868
 20
4.0801074351978102
 10
42.5173942701227787
 20
4.0121077762619315
 10
42.6194577080491115
 20
3.9317445429740694
 10
42.714870395634378
 20
3.8390177353342416
 10
42.8012022510231915
 20
3.7350784447476109
 10
42.8760231923601722
 20
3.6210777626193718
 10
42.9393332196452917
 20
3.4970156889495208
 10
42.9911323328785784
 20
3.3628922237380614
 10
43.0314205320600323
 20
3.2187073669849902
 10
43.060197817189632
 20
3.0644611186903106
 10
43.0774641882673919
 20
2.9001534788540191
 10
43.0832196452933118
 20
2.7257844474761193
 10
43.080491132332881
 20
2.5948158253751714
 10
40.919508867667119
 20
2.5948158253751714
 10
40.9466234652114593
 20
2.3700545702591995
 10
41.0006821282401077
 20
2.1732605729877186
 10
41.0816848567530712
 20
2.0044338335607108
 10
41.1896316507503428
 20
1.8635743519781691
 10
41.3185538881309711
 20
1.7525579809004093
 10
41.4624829467939975
 20
1.6732605729877186
 10
41.6214188267394292
 20
1.6256821282401113
 10
41.795361527967259
 20
1.6098226466575696
 10
41.9254774897680775
 20
1.6186903137789912
 10
42.0457025920873235
 20
1.6452933151432489
 10
42.1560368349249686
 20
1.6896316507503393
 10
42.2564802182810411
 20
1.7517053206002693
 10
42.3470327421555268
 20
1.8332196452933189
 10
42.4276944065484329
 20
1.9358799454297397
 10
42.4984652114597594
 20
2.0596862210095495
 10
42.559345156889492
 20
2.204638472032741
  0
LWPOLYLINE
  5
59
  8
Text
 62
256
370
-1
  6
CONTINUOUS
100
AcDbEntity
100
AcDbPolyline
 90
18
 70
1
 10
40.9467939972714774
 20
2.998635743519781
 10
42.564802182810368
 20
2.998635743519781
 10
42.5409276944065482
 20
3.1700204638472016
 10
42.5020463847203303
 20
3.3185538881309711
 10
42.448158253751707
 20
3.4442360163710788
 10
42.3792633015006928
 20
3.5470668485675283
 10
42.2532401091405205
 20
3.6712141882673883
 10
42.1098226466575767
 20
3.7598908594815796
 10
41.949010914051847
 20
3.8130968622100987
 10
41.7708049113233315
 20
3.8308321964529313
 10
41.6083731241473416
 20
3.8166780354706695
 10
41.4594133697135021
 20
3.7742155525238701
 10
41.3239256480218273
 20
3.7034447476125507
 10
41.2019099590723101
 20
3.6043656207367007
 10
41.09950545702592
 20
3.481582537517049
 10
41.0228512960436476
 20
3.3396998635743493
 10
40.9719474761255071
 20
3.178717598908591
 10
40.9467939972714774
 20
2.998635743519781
  0
LWPOLYLINE
  5
5A
  8
Text
 62
256
370
-1
  6
CONTINUOUS
100
AcDbEntity
100
AcDbPolyline
 90
76
 70
1
 10
45.6671214188267385
 20
2.204638472032741
 10
46.1746248294679376
 20
2.1418826739426997
 10
46.1018076398363021
 20
1.9319577080491115
 10
46.0034106412005528
 20
1.7469304229195011
 10
45.8794338335607108
 20
1.5868008185538791
 10
45.7298772169167833
 20
1.4515688949522492
 10
45.5562755798090109
 20
1.3441336971350601
 10
45.360163710777627
 20
1.2673942701227787
 10
45.141541609822653
 20
1.2213506139154084
 10
44.9004092769440675
 20
1.20600272851296
 10
44.745587482946803
 20
1.2121205661664298
 10
44.5989938608458374
 20
1.2304740791268713
 10
44.4606284106412133
 20
1.2610632673942597
 10
44.330491132332881
 20
1.3038881309686197
 10
44.208582025920883
 20
1.35894866984993
 10
44.0949010914051769
 20
1.4262448840381907
 10
43.9894483287858122
 20
1.5057767735334195
 10
43.8922237380627465
 20
1.5975443383355987
 10
43.8049326398362879
 20
1.7003538540245486
 10
43.7292803547066811
 20
1.813011596180079
 10
43.665266882673933
 20
1.9355175648021792
 10
43.6128922237380579
 20
2.0678717598908598
 10
43.5721563778990415
 20
2.2100741814461102
 10
43.543059345156891
 20
2.3621248294679411
 10
43.5256011255115993
 20
2.5240237039563382
 10
43.5197817189631735
 20
2.6957708049113194
 10
43.5256650750341123
 20
2.8734652114597488
 10
43.5433151432469288
 20
3.0409276944065411
 10
43.572731923601637
 20
3.1981582537516999
 10
43.613915416098223
 20
3.3451568894952217
 10
43.6668656207367007
 20
3.48192360163711
 10
43.7315825375170633
 20
3.6084583901773506
 10
43.8080661664392892
 20
3.7247612551159612
 10
43.896316507503407
 20
3.8308321964529313
 10
43.9939461118690431
 20
3.9254774897680704
 10
44.0985675306957674
 20
4.0075034106411991
 10
44.2101807639836366
 20
4.0769099590722995
 10
44.3287858117326223
 20
4.1336971350613894
 10
44.4543826739427033
 20
4.1778649386084616
 10
44.586971350613922
 20
4.2094133697134986
 10
44.7265518417462573
 20
4.2283424283765285
 10
44.873124147339702
 20
4.2346521145975409
 10
45.0150920873124107
 20
4.2284703274215509
 10
45.1504092769440604
 20
4.2099249658935811
 10
45.2790757162346509
 20
4.1790160300136314
 10
45.4010914051841823
 20
4.135743519781709
 10
45.5164563437926333
 20
4.0801074351978102
 10
45.6251705320600323
 20
4.0121077762619315
 10
45.7272339699863579
 20
3.9317445429740694
 10
45.8226466575716174
 20
3.8390177353342416
 10
45.908978512960438
 20
3.7350784447476109
 10
45.9837994542974116
 20
3.6210777626193718
 10
46.0471094815825381
 20
3.4970156889495208
 10
46.0989085948158177
 20
3.3628922237380614
 10
46.1391967939972716
 20
3.2187073669849902
 10
46.1679740791268785
 20
3.0644611186903106
 10
46.1852404502046383
 20
2.9001534788540191
 10
46.1909959072305583
 20
2.7257844474761193
 10
46.1882673942701274
 20
2.5948158253751714
 10
44.0272851296043726
 20
2.5948158253751714
 10
44.0543997271487129
 20
2.3700545702591995
 10
44.108458390177347
 20
2.1732605729877186
 10
44.1894611186903177
 20
2.0044338335607108
 10
44.2974079126875893
 20
1.8635743519781691
 10
44.4263301500682175
 20
1.7525579809004093
 10
44.5702592087312368
 20
1.6732605729877186
 10
44.7291950886766827
 20
1.6256821282401113
 10
44.9031377899045125
 20
1.6098226466575696
 10
45.0332537517053311
 20
1.6186903137789912
 10
45.1534788540245628
 20
1.6452933151432489
 10
45.2638130968622079
 20
1.6896316507503393
 10
45.3642564802182875
 20
1.7517053206002693
 10
45.4548090040927733
 20
1.8332196452933189
 10
45.5354706684856794
 20
1.9358799454297397
 10
45.606241473397013
 20
2.0596862210095495
 10
45.6671214188267385
 20
2.204638472032741
  0
LWPOLYLINE
  5
5B
  8
Text
 62
256
370
-1
  6
CONTINUOUS
100
AcDbEntity
100
AcDbPolyline
 90
18
 70
1
 10
44.0545702592087309
 20
2.998635743519781
 10
45.6725784447476073
 20
2.998635743519781
 10
45.6487039563437875
 20
3.1700204638472016
 10
45.6098226466575767
 20
3.3185538881309711
 10
45.5559345156889535
 20
3.4442360163710788
 10
45.4870395634379321
 20
3.5470668485675283
 10
45.361016371077767
 20
3.6712141882673883
 10
45.2175989085948231
 20
3.7598908594815796
 10
45.0567871759890934
 20
3.8130968622100987
 10
44.8785811732605779
 20
3.8308321964529313
 10
44.716149386084588
 20
3.8166780354706695
 10
44.5671896316507485
 20
3.7742155525238701
 10
44.4317019099590667
 20
3.7034447476125507
 10
44.3096862210095566
 20
3.6043656207367007
 10
44.2072817189631735
 20
3.481582537517049
 10
44.1306275579809011
 20
3.3396998635743493
 10
44.0797237380627465
 20
3.178717598908591
 10
44.0545702592087309
 20
2.998635743519781
  0
LWPOLYLINE
  5
5C
  8
Text
 62
256
370
-1
  6
CONTINUOUS
100
AcDbEntity
100
AcDbPolyline
 90
51
 70
1
 10
46.7912687585266127
 20
1.2714870395634392
 10
46.7912687585266127
 20
4.1691678035470687
 10
47.233287858117329
 20
4.1691678035470687
 10
47.233287858117329
 20
3.7571623465211488
 10
47.3175306957708131
 20
3.8690740109140513
 10
47.4106412005457116
 20
3.9660641200545683
 10
47.5126193724420176
 20
4.0481326739426997
 10
47.6234652114597594
 20
4.1152796725784384
 10
47.7431787175989228
 20
4.1675051159617986
 10
47.8717598908594866
 20
4.2048090040927697
 10
48.009208731241479
 20
4.227191336971341
 10
48.1555252387448931
 20
4.2346521145975409
 10
48.2838506139154191
 20
4.2287687585265985
 10
48.4068894952251014
 20
4.2111186903137714
 10
48.5246418826739472
 20
4.1817019099590702
 10
48.6371077762619421
 20
4.1405184174624807
 10
48.7400238744884078
 20
4.089785129604369
 10
48.8291268758526726
 20
4.0317189631650692
 10
48.9044167803547083
 20
3.9663199181446096
 10
48.9658935879945503
 20
3.893587994542969
 10
49.0163710777626278
 20
3.8136084583901706
 10
49.0586630286493914
 20
3.7264665757162305
 10
49.1186903137789983
 20
3.5306957708049111
 10
49.1391541609822724
 20
3.3431105047748986
 10
49.1459754433833567
 20
3.0532060027285084
 10
49.1459754433833567
 20
1.2714870395634392
 10
48.6548431105047783
 20
1.2714870395634392
 10
48.6548431105047783
 20
3.0341064120054497
 10
48.6405184174624878
 20
3.2963847203274206
 10
48.6226125511596194
 20
3.3991302864938611
 10
48.5975443383356094
 20
3.4829467939972716
 10
48.56335266030014
 20
3.5535470668485694
 10
48.5180763983629006
 20
3.6166439290586609
 10
48.4617155525238772
 20
3.6722373806275606
 10
48.3942701227830909
 20
3.7203274215552504
 10
48.3181275579809011
 20
3.7591234652114593
 10
48.2356753069577167
 20
3.7868349249658912
 10
48.1469133697135092
 20
3.8034618008185497
 10
48.0518417462483001
 20
3.8090040927694417
 10
47.900324010914062
 20
3.7965552523874493
 10
47.7595497953615435
 20
3.7592087312414684
 10
47.6295190995907376
 20
3.6969645293315097
 10
47.510231923601637
 20
3.6098226466575696
 10
47.4568340723055968
 20
3.5544423601637085
 10
47.4105559345156919
 20
3.4878922237380614
 10
47.3713975102319296
 20
3.4101722373806282
 10
47.3393587994543026
 20
3.321282401091409
 10
47.296640518417469
 20
3.1099931787175983
 10
47.2824010914051911
 20
2.8540245566166398
 10
47.2824010914051911
 20
1.2714870395634392
 10
46.7912687585266127
 20
1.2714870395634392
  0
CIRCLE
  5
5D
100
AcDbEntity
100
AcDbCircle
  8
CableHole
 62
256
370
-1
  6
CONTINUOUS
 10
5.0
 20
14.0
 30
0.0
 40
4.0
  0
ENDSEC
  0
SECTION
  2
OBJECTS
  0
DICTIONARY
  5
C
100
AcDbDictionary
280
0
281
1
  3
ACAD_GROUP
350
D
  3
ACAD_LAYOUT
350
1A
  3
ACAD_MLINESTYLE
350
17
  3
ACAD_PLOTSETTINGS
350
19
  3
ACAD_PLOTSTYLENAME
350
E
  3
AcDbVariableDictionary
350
5E
  0
DICTIONARY
  5
D
100
AcDbDictionary
280
0
281
1
  0
ACDBDICTIONARYWDFLT
  5
E
100
AcDbDictionary
281
1
  3
Normal
350
F
100
AcDbDictionaryWithDefault
340
F
  0
ACDBPLACEHOLDER
  5
F
  0
DICTIONARY
  5
17
100
AcDbDictionary
280
0
281
1
  3
Standard
350
18
  0
MLINESTYLE
  5
18
100
AcDbMlineStyle
  2
STANDARD
 70
0
  3

 62
256
 51
90.0
 52
90.0
 71
2
 49
0.5
 62
256
  6
BYLAYER
 49
-0.5
 62
256
  6
BYLAYER
  0
DICTIONARY
  5
19
100
AcDbDictionary
280
0
281
1
  0
DICTIONARY
  5
1A
100
AcDbDictionary
281
1
  3
Layout1
350
1E
  3
Layout2
350
26
  3
Model
350
22
  0
LAYOUT
  5
1E
100
AcDbPlotSettings
  1

  2
C:\Program Files\AutoCAD 2002\plotters\DWF ePlot (optimized for plotting).pc3
  4

  6

 40
0.0
 41
0.0
 42
0.0
 43
0.0
 44
0.0
 45
0.0
 46
0.0
 47
0.0
 48
0.0
 49
0.0
140
0.0
141
0.0
142
1.0
143
1.0
 70
688
 72
0
 73
0
 74
5
  7

 75
16
147
1.0
148
0.0
149
0.0
100
AcDbLayout
  1
Layout1
 70
1
 71
1
 10
0.0
 20
0.0
 11
420.0
 21
297.0
 12
0.0
 22
0.0
 32
0.0
 14
100000000000000000000.0
 24
100000000000000000000.0
 34
100000000000000000000.0
 15
-100000000000000000000.0
 25
-100000000000000000000.0
 35
-100000000000000000000.0
146
0.0
 13
0.0
 23
0.0
 33
0.0
 16
1.0
 26
0.0
 36
0.0
 17
0.0
 27
1.0
 37
0.0
 76
0
330
1B
  0
LAYOUT
  5
22
100
AcDbPlotSettings
  1

  2
C:\Program Files\AutoCAD 2002\plotters\DWF ePlot (optimized for plotting).pc3
  4

  6

 40
0.0
 41
0.0
 42
0.0
 43
0.0
 44
0.0
 45
0.0
 46
0.0
 47
0.0
 48
0.0
 49
0.0
140
0.0
141
0.0
142
1.0
143
1.0
 70
1712
 72
0
 73
0
 74
0
  7

 75
0
147
1.0
148
0.0
149
0.0
100
AcDbLayout
  1
Model
 70
1
 71
0
 10
0.0
 20
0.0
 11
12.0
 21
9.0
 12
0.0
 22
0.0
 32
0.0
 14
0.0
 24
0.0
 34
0.0
 15
0.0
 25
0.0
 35
0.0
146
0.0
 13
0.0
 23
0.0
 33
0.0
 16
1.0
 26
0.0
 36
0.0
 17
0.0
 27
1.0
 37
0.0
 76
0
330
1F
  0
LAYOUT
  5
26
100
AcDbPlotSettings
  1

  2
C:\Program Files\AutoCAD 2002\plotters\DWF ePlot (optimized for plotting).pc3
  4

  6

 40
0.0
 41
0.0
 42
0.0
 43
0.0
 44
0.0
 45
0.0
 46
0.0
 47
0.0
 48
0.0
 49
0.0
140
0.0
141
0.0
142
1.0
143
1.0
 70
688
 72
0
 73
0
 74
5
  7

 75
16
147
1.0
148
0.0
149
0.0
100
AcDbLayout
  1
Layout2
 70
1
 71
2
 10
0.0
 20
0.0
 11
12.0
 21
9.0
 12
0.0
 22
0.0
 32
0.0
 14
0.0
 24
0.0
 34
0.0
 15
0.0
 25
0.0
 35
0.0
146
0.0
 13
0.0
 23
0.0
 33
0.0
 16
1.0
 26
0.0
 36
0.0
 17
0.0
 27
1.0
 37
0.0
 76
0
330
23
  0
DICTIONARY
  5
5E
100
AcDbDictionary
281
1
  3
DIMASSOC
350
60
  3
HIDETEXT
350
5F
  0
DICTIONARYVAR
  5
5F
100
DictionaryVariables
280
0
  1
2
  0
DICTIONARYVAR
  5
60
100
DictionaryVariables
280
0
  1
1
  0
ENDSEC
  0
EOF
